<svg width="128" height="128" viewBox="0 0 128 128" fill="none" xmlns="http://www.w3.org/2000/svg">
<g filter="url(#filter0_d_2026_18987)">
<circle cx="64" cy="60" r="48.5" stroke="white" stroke-width="3"/>
<path d="M45.2794 76.6082C42.5176 76.5982 40.1411 75.9603 38.1501 74.6945C36.1697 73.4288 34.6442 71.5954 33.5738 69.1945C32.514 66.7936 31.9895 63.9055 32.0002 60.5301C32.0002 57.1648 32.53 54.2968 33.5898 51.926C34.6603 49.5553 36.1857 47.7521 38.1661 46.5164C40.1572 45.2708 42.5283 44.6479 45.2794 44.6479C48.0306 44.6479 50.3963 45.2708 52.3767 46.5164C54.3678 47.7621 55.8986 49.5703 56.9691 51.9411C58.0395 54.3018 58.5694 57.1648 58.5587 60.5301C58.5587 63.9155 58.0235 66.8087 56.953 69.2096C55.8932 71.6105 54.3731 73.4438 52.3928 74.7096C50.4124 75.9753 48.0413 76.6082 45.2794 76.6082ZM45.2794 71.1986C47.1635 71.1986 48.6675 70.3096 49.7915 68.5315C50.9155 66.7534 51.4721 64.0863 51.4614 60.5301C51.4614 58.1895 51.2045 56.2406 50.6907 54.6836C50.1876 53.1265 49.4704 51.9562 48.539 51.1726C47.6184 50.389 46.5319 49.9973 45.2794 49.9973C43.4061 49.9973 41.9074 50.8763 40.7834 52.6342C39.6594 54.3922 39.0921 57.0242 39.0814 60.5301C39.0814 62.9009 39.3329 64.8799 39.8361 66.4671C40.3499 68.0443 41.0725 69.2297 42.0038 70.0233C42.9351 70.8068 44.027 71.1986 45.2794 71.1986Z" fill="white"/>
<path d="M81.5164 70.1438V68.5164C81.5164 67.2808 81.7948 66.1457 82.3514 65.111C82.9188 64.0662 83.7377 63.2324 84.8082 62.6096C85.8893 61.9767 87.206 61.6603 88.7582 61.6603C90.3318 61.6603 91.6539 61.9717 92.7243 62.5945C93.8055 63.2174 94.6191 64.0511 95.165 65.0959C95.7217 66.1306 96 67.2708 96 68.5164V70.1438C96 71.3795 95.7217 72.5196 95.165 73.5644C94.6084 74.5991 93.7895 75.4279 92.7083 76.0507C91.6271 76.6836 90.3104 77 88.7582 77C87.1846 77 85.8626 76.6836 84.7921 76.0507C83.7216 75.4279 82.9081 74.5991 82.3514 73.5644C81.7948 72.5196 81.5164 71.3795 81.5164 70.1438ZM86.1891 68.5164V70.1438C86.1891 70.8571 86.3711 71.5301 86.735 72.163C87.1097 72.7959 87.7841 73.1123 88.7582 73.1123C89.7324 73.1123 90.3961 72.8009 90.7493 72.1781C91.1133 71.5553 91.2953 70.8772 91.2953 70.1438V68.5164C91.2953 67.7831 91.124 67.1 90.7814 66.4671C90.4389 65.8342 89.7645 65.5178 88.7582 65.5178C87.7948 65.5178 87.1257 65.8342 86.7511 66.4671C86.3764 67.1 86.1891 67.7831 86.1891 68.5164ZM64.6404 52.4836V50.8562C64.6404 49.6105 64.924 48.4703 65.4914 47.4356C66.0587 46.3909 66.8777 45.5571 67.9481 44.9342C69.0293 44.3114 70.3353 44 71.8661 44C73.4504 44 74.7778 44.3114 75.8483 44.9342C76.9187 45.5571 77.7323 46.3909 78.2889 47.4356C78.8456 48.4703 79.1239 49.6105 79.1239 50.8562V52.4836C79.1239 53.7292 78.8402 54.8694 78.2729 55.9041C77.7162 56.9388 76.8973 57.7676 75.8161 58.3904C74.7457 59.0032 73.429 59.3096 71.8661 59.3096C70.3032 59.3096 68.9811 58.9982 67.9 58.3753C66.8295 57.7425 66.0159 56.9137 65.4593 55.889C64.9133 54.8543 64.6404 53.7192 64.6404 52.4836ZM69.3451 50.8562V52.4836C69.3451 53.2169 69.5271 53.895 69.8911 54.5178C70.2657 55.1406 70.9241 55.4521 71.8661 55.4521C72.8509 55.4521 73.52 55.1406 73.8732 54.5178C74.2372 53.895 74.4192 53.2169 74.4192 52.4836V50.8562C74.4192 50.1228 74.2479 49.4397 73.9053 48.8068C73.5628 48.174 72.883 47.8575 71.8661 47.8575C70.9134 47.8575 70.255 48.179 69.8911 48.8219C69.5271 49.4648 69.3451 50.1429 69.3451 50.8562ZM66.7599 75.9301L89.3684 45.0699H93.5754L70.9669 75.9301H66.7599Z" fill="white"/>
</g>
<defs>
<filter id="filter0_d_2026_18987" x="0" y="0" width="128" height="128" filterUnits="userSpaceOnUse" color-interpolation-filters="sRGB">
<feFlood flood-opacity="0" result="BackgroundImageFix"/>
<feColorMatrix in="SourceAlpha" type="matrix" values="0 0 0 0 0 0 0 0 0 0 0 0 0 0 0 0 0 0 127 0" result="hardAlpha"/>
<feOffset dy="4"/>
<feGaussianBlur stdDeviation="7"/>
<feComposite in2="hardAlpha" operator="out"/>
<feColorMatrix type="matrix" values="0 0 0 0 0 0 0 0 0 0 0 0 0 0 0 0 0 0 0.24 0"/>
<feBlend mode="normal" in2="BackgroundImageFix" result="effect1_dropShadow_2026_18987"/>
<feBlend mode="normal" in="SourceGraphic" in2="effect1_dropShadow_2026_18987" result="shape"/>
</filter>
</defs>
</svg>
