<svg width="140" height="140" viewBox="0 0 140 140" fill="none" xmlns="http://www.w3.org/2000/svg">
<g opacity="0.3">
<path d="M41.7595 41.7156H53.747C54.3271 41.7156 54.8835 41.4851 55.2938 41.0749C55.704 40.6646 55.9345 40.1082 55.9345 39.5281C55.9345 38.9479 55.704 38.3915 55.2938 37.9813C54.8835 37.571 54.3271 37.3406 53.747 37.3406H41.7595C41.1793 37.3406 40.6229 37.571 40.2127 37.9813C39.8024 38.3915 39.572 38.9479 39.572 39.5281C39.572 40.1082 39.8024 40.6646 40.2127 41.0749C40.6229 41.4851 41.1793 41.7156 41.7595 41.7156ZM32.3532 56.6125H52.6095C53.1896 56.6125 53.746 56.382 54.1563 55.9718C54.5665 55.5615 54.797 55.0051 54.797 54.425C54.797 53.8448 54.5665 53.2884 54.1563 52.8782C53.746 52.4679 53.1896 52.2375 52.6095 52.2375H32.3532C31.7731 52.2375 31.2167 52.4679 30.8064 52.8782C30.3962 53.2884 30.1657 53.8448 30.1657 54.425C30.1657 55.0051 30.3962 55.5615 30.8064 55.9718C31.2167 56.382 31.7731 56.6125 32.3532 56.6125ZM23.1438 71.5093H53.1563C53.7365 71.5093 54.2929 71.2789 54.7031 70.8686C55.1134 70.4584 55.3438 69.902 55.3438 69.3218C55.3438 68.7417 55.1134 68.1853 54.7031 67.775C54.2929 67.3648 53.7365 67.1343 53.1563 67.1343H23.1438C22.5637 67.1343 22.0073 67.3648 21.5971 67.775C21.1868 68.1853 20.9563 68.7417 20.9563 69.3218C20.9563 69.902 21.1868 70.4584 21.5971 70.8686C22.0073 71.2789 22.5637 71.5093 23.1438 71.5093ZM55.9345 84.1968C55.9345 83.6167 55.704 83.0603 55.2938 82.65C54.8835 82.2398 54.3271 82.0093 53.747 82.0093H12.6001C12.0199 82.0093 11.4635 82.2398 11.0533 82.65C10.6431 83.0603 10.4126 83.6167 10.4126 84.1968C10.4126 84.777 10.6431 85.3334 11.0533 85.7436C11.4635 86.1539 12.0199 86.3843 12.6001 86.3843H53.747C54.3271 86.3843 54.8835 86.1539 55.2938 85.7436C55.704 85.3334 55.9345 84.777 55.9345 84.1968ZM53.7907 99.0937C53.7907 98.5135 53.5603 97.9571 53.15 97.5469C52.7398 97.1367 52.1834 96.9062 51.6032 96.9062H24.0626C23.4824 96.9062 22.926 97.1367 22.5158 97.5469C22.1056 97.9571 21.8751 98.5135 21.8751 99.0937C21.8751 99.6739 22.1056 100.23 22.5158 100.641C22.926 101.051 23.4824 101.281 24.0626 101.281H51.6032C52.1834 101.281 52.7398 101.051 53.15 100.641C53.5603 100.23 53.7907 99.6739 53.7907 99.0937ZM53.747 111.803H41.7595C41.1793 111.803 40.6229 112.034 40.2127 112.444C39.8024 112.854 39.572 113.41 39.572 113.991C39.572 114.571 39.8024 115.127 40.2127 115.537C40.6229 115.948 41.1793 116.178 41.7595 116.178H53.747C54.3271 116.178 54.8835 115.948 55.2938 115.537C55.704 115.127 55.9345 114.571 55.9345 113.991C55.9345 113.41 55.704 112.854 55.2938 112.444C54.8835 112.034 54.3271 111.803 53.747 111.803ZM71.5313 84.2625C73.2079 84.261 74.8402 83.7246 76.1907 82.7312L76.4095 82.5343L98.8532 60.8343C99.2248 60.4795 99.4597 60.0051 99.5165 59.4945C99.5734 58.9838 99.4487 58.4694 99.1643 58.0415C98.8799 57.6135 98.4539 57.2994 97.961 57.1541C97.4682 57.0088 96.9399 57.0416 96.4688 57.2468L69.5407 68.8406L67.3532 69.7812C67.1956 69.8474 67.0483 69.9358 66.9157 70.0437C65.5782 71.0275 64.5858 72.4089 64.0804 73.9905C63.5751 75.5721 63.5825 77.273 64.1018 78.8501C64.621 80.4272 65.6254 81.7999 66.9716 82.7719C68.3177 83.744 69.9366 84.2657 71.597 84.2625H71.5313Z" fill="white"/>
<path d="M119.306 35.175C119.509 35.3817 119.751 35.5461 120.017 35.6588C120.284 35.7714 120.57 35.83 120.86 35.8312C121.149 35.83 121.435 35.7714 121.702 35.6588C121.968 35.5461 122.21 35.3817 122.413 35.175L128.975 28.6125C129.387 28.2086 129.623 27.6582 129.631 27.0813C129.63 26.7918 129.572 26.5055 129.459 26.2389C129.346 25.9723 129.182 25.7307 128.975 25.5281L121.997 18.5281C121.587 18.1207 121.033 17.892 120.455 17.892C119.877 17.892 119.322 18.1207 118.913 18.5281L112.35 25.0906C111.943 25.5005 111.714 26.0549 111.714 26.6328C111.714 27.2107 111.943 27.7651 112.35 28.175L114.538 30.2531L109.922 34.8469C101.4 27.0946 90.7165 22.1266 79.297 20.6062V18.4187H85.1158C85.6959 18.4187 86.2523 18.1883 86.6626 17.778C87.0728 17.3678 87.3033 16.8114 87.3033 16.2312V8.75C87.3033 8.16984 87.0728 7.61344 86.6626 7.2032C86.2523 6.79297 85.6959 6.5625 85.1158 6.5625H59.5439C58.9637 6.5625 58.4073 6.79297 57.9971 7.2032C57.5869 7.61344 57.3564 8.16984 57.3564 8.75V16.3406C57.3564 16.9208 57.5869 17.4772 57.9971 17.8874C58.4073 18.2977 58.9637 18.5281 59.5439 18.5281H65.3626V20.4313C62.6514 20.7137 59.9669 21.2111 57.3345 21.9188C56.7601 22.0667 56.2681 22.4367 55.9666 22.9475C55.665 23.4582 55.5788 24.0678 55.7267 24.6422C55.8746 25.2165 56.2447 25.7086 56.7554 26.0101C57.2662 26.3117 57.8758 26.3979 58.4501 26.25C61.4016 25.4712 64.4185 24.9659 67.4626 24.7406H67.9001H69.3439V27.3219C69.3439 27.902 69.5744 28.4584 69.9846 28.8687C70.3948 29.2789 70.9512 29.5094 71.5314 29.5094C72.1115 29.5094 72.668 29.2789 73.0782 28.8687C73.4884 28.4584 73.7189 27.902 73.7189 27.3219V24.5C81.3534 24.8189 88.8231 26.8208 95.5939 30.3625L94.2814 32.55C94.0199 33.0499 93.9616 33.6316 94.1188 34.1734C94.276 34.7153 94.6365 35.1755 95.125 35.4578C95.6134 35.7402 96.1921 35.8229 96.7401 35.6887C97.2881 35.5544 97.7631 35.2136 98.0658 34.7375L99.3783 32.55C105.874 36.6434 111.38 42.1273 115.5 48.6062L113.116 49.9844C112.64 50.2871 112.299 50.762 112.165 51.31C112.03 51.858 112.113 52.4367 112.395 52.9252C112.678 53.4136 113.138 53.7741 113.68 53.9313C114.222 54.0885 114.803 54.0303 115.303 53.7687L117.731 52.3688C121.405 59.1502 123.506 66.6713 123.878 74.375H120.969C120.389 74.375 119.832 74.6055 119.422 75.0157C119.012 75.4259 118.781 75.9823 118.781 76.5625C118.781 77.1427 119.012 77.6991 119.422 78.1093C119.832 78.5195 120.389 78.75 120.969 78.75H123.9C123.645 86.4807 121.673 94.0578 118.125 100.931L115.522 99.4219C115.273 99.2636 114.995 99.1573 114.704 99.1094C114.412 99.0616 114.115 99.0731 113.828 99.1432C113.541 99.2134 113.272 99.3409 113.036 99.5179C112.8 99.6949 112.602 99.9178 112.455 100.173C112.307 100.429 112.213 100.711 112.177 101.004C112.141 101.297 112.165 101.594 112.248 101.877C112.33 102.161 112.468 102.425 112.655 102.653C112.842 102.881 113.073 103.069 113.335 103.206L115.938 104.694C111.801 111.223 106.273 116.757 99.7501 120.903L98.2189 118.256C97.9162 117.78 97.4413 117.439 96.8933 117.305C96.3452 117.171 95.7666 117.254 95.2781 117.536C94.7896 117.818 94.4291 118.278 94.2719 118.82C94.1147 119.362 94.173 119.944 94.4345 120.444L95.9658 123.091C89.0709 126.731 81.4448 128.772 73.6533 129.062V126C73.6533 125.42 73.4228 124.863 73.0126 124.453C72.6023 124.043 72.0459 123.812 71.4658 123.812C70.8856 123.812 70.3292 124.043 69.919 124.453C69.5087 124.863 69.2783 125.42 69.2783 126V129.062C65.6212 128.913 61.9909 128.371 58.4501 127.444C57.8903 127.297 57.2952 127.378 56.795 127.669C56.2948 127.96 55.9303 128.438 55.7814 128.997C55.7054 129.276 55.6854 129.566 55.7225 129.853C55.7595 130.139 55.853 130.416 55.9973 130.666C56.1417 130.916 56.3342 131.135 56.5638 131.31C56.7933 131.486 57.0552 131.614 57.3345 131.688C69.233 134.798 81.8203 133.952 93.1956 129.278C104.571 124.603 114.117 116.355 120.391 105.778C126.665 95.2003 129.327 82.8687 127.975 70.645C126.624 58.4213 121.331 46.9694 112.897 38.0187L117.491 33.425L119.306 35.175Z" fill="white"/>
</g>
</svg>
