<svg width="64" height="64" viewBox="0 0 64 64" fill="none" xmlns="http://www.w3.org/2000/svg">
<path d="M32 46C33.9778 46 35.9112 45.4135 37.5557 44.3147C39.2002 43.2159 40.4819 41.6541 41.2388 39.8268C41.9957 37.9996 42.1937 35.9889 41.8079 34.0491C41.422 32.1093 40.4696 30.3275 39.0711 28.9289C37.6725 27.5304 35.8907 26.578 33.9509 26.1922C32.0111 25.8063 30.0004 26.0043 28.1732 26.7612C26.3459 27.5181 24.7841 28.7998 23.6853 30.4443C22.5865 32.0888 22 34.0222 22 36C22.0029 38.6513 23.0574 41.1931 24.9321 43.0679C26.8069 44.9426 29.3487 45.9971 32 46ZM32 28C33.5823 28 35.129 28.4692 36.4446 29.3482C37.7602 30.2273 38.7855 31.4767 39.391 32.9385C39.9965 34.4003 40.155 36.0089 39.8463 37.5607C39.5376 39.1126 38.7757 40.538 37.6569 41.6569C36.538 42.7757 35.1126 43.5376 33.5607 43.8463C32.0089 44.155 30.4003 43.9965 28.9385 43.391C27.4767 42.7855 26.2273 41.7602 25.3482 40.4446C24.4692 39.129 24 37.5823 24 36C24.0024 33.879 24.846 31.8456 26.3458 30.3458C27.8456 28.846 29.879 28.0024 32 28Z" fill="#EEF300"/>
<path d="M59.218 36H52.738C51.2171 31.0381 48.3428 26.5985 44.438 23.18L38.882 18.318C39.3129 17.9745 39.6398 17.518 39.8263 16.9994C40.0129 16.4809 40.0517 15.9208 39.9384 15.3815C39.8252 14.8422 39.5643 14.345 39.185 13.9453C38.8056 13.5456 38.3227 13.2592 37.79 13.118L42.833 5.554C42.9534 5.37374 43.012 5.15924 42.9999 4.94281C42.9878 4.72638 42.9057 4.51973 42.766 4.354C42.741 4.326 42.709 4.309 42.682 4.283L42.69 4.275C41.1497 2.82381 39.1162 2.01081 37 2C35.3303 2.0031 33.701 2.51443 32.329 3.466C29.224 2.108 26 0.747 21.4 4.2C21.1954 4.35338 21.0574 4.5793 21.0142 4.83131C20.9711 5.08333 21.0261 5.3423 21.168 5.555L26.211 13.119C25.7302 13.2456 25.289 13.4911 24.9278 13.8327C24.5667 14.1744 24.2972 14.6013 24.144 15.0743C23.9909 15.5473 23.9591 16.0512 24.0515 16.5397C24.144 17.0282 24.3577 17.4856 24.673 17.87L19.94 22.288L21.306 23.749L26.394 19H36.624L43.124 24.685C46.5908 27.7215 49.1856 31.6272 50.641 36H46.782C46.0444 36.0008 45.3373 36.2942 44.8157 36.8157C44.2942 37.3373 44.0008 38.0444 44 38.782V41.218C44.0029 41.872 44.2383 42.5036 44.664 43C44.2383 43.4964 44.0029 44.128 44 44.782V47.218C44.004 47.5111 44.0547 47.8018 44.15 48.079C43.5401 48.2215 42.9961 48.5655 42.6059 49.0555C42.2157 49.5454 42.0023 50.1527 42 50.779V53.215C42.0023 53.8413 42.2157 54.4486 42.6059 54.9385C42.9961 55.4285 43.5401 55.7725 44.15 55.915C44.0547 56.1922 44.004 56.4829 44 56.776V59.212C44.0046 59.3293 44.0163 59.4461 44.035 59.562C43.0488 59.8492 42.0272 59.9967 41 60H40.874C40.9537 59.7468 40.9961 59.4834 41 59.218V56.782C40.9971 56.128 40.7617 55.4964 40.336 55C40.7617 54.5036 40.9971 53.872 41 53.218V50.782C40.9992 50.0444 40.7058 49.3373 40.1843 48.8157C39.6627 48.2942 38.9556 48.0008 38.218 48H25.782C25.0444 48.0008 24.3373 48.2942 23.8157 48.8157C23.2942 49.3373 23.0008 50.0444 23 50.782V53.218C23.0029 53.872 23.2383 54.5036 23.664 55C23.2383 55.4964 23.0029 56.128 23 56.782V59.218C23.0039 59.4834 23.0463 59.7468 23.126 60H23C21.9731 59.9986 20.9515 59.8532 19.965 59.568C19.9837 59.4521 19.9954 59.3353 20 59.218V56.782C19.996 56.4889 19.9453 56.1982 19.85 55.921C20.4599 55.7785 21.0039 55.4345 21.3941 54.9445C21.7843 54.4546 21.9977 53.8473 22 53.221V50.782C21.9977 50.1557 21.7843 49.5484 21.3941 49.0585C21.0039 48.5685 20.4599 48.2245 19.85 48.082C19.9453 47.8048 19.996 47.5141 20 47.221V44.782C19.9971 44.128 19.7617 43.4964 19.336 43C19.7617 42.5036 19.9971 41.872 20 41.218V38.782C19.9992 38.0444 19.7058 37.3373 19.1843 36.8157C18.6627 36.2942 17.9556 36.0008 17.218 36H13.188C14.4483 31.9416 16.6842 28.254 19.7 25.26L18.3 23.839C14.8999 27.2105 12.421 31.3975 11.1 36H4.782C4.04441 36.0008 3.33726 36.2942 2.81571 36.8157C2.29415 37.3373 2.00079 38.0444 2 38.782V41.218C2.0029 41.872 2.23825 42.5036 2.664 43C2.23825 43.4964 2.0029 44.128 2 44.782V47.218C2.00226 47.8443 2.21574 48.4516 2.6059 48.9415C2.99605 49.4315 3.54008 49.7755 4.15 49.918C4.05467 50.1952 4.00404 50.4859 4 50.779V53.215C4.00404 53.5081 4.05467 53.7988 4.15 54.076C3.53909 54.2187 2.9943 54.5636 2.60404 55.0548C2.21377 55.546 2.00091 56.1546 2 56.782V59.218C2.00079 59.9556 2.29415 60.6627 2.81571 61.1843C3.33726 61.7058 4.04441 61.9992 4.782 62H17.218C17.8617 61.9973 18.4841 61.7691 18.977 61.355C20.2756 61.7807 21.6334 61.9984 23 62H41C42.3666 61.9984 43.7244 61.7807 45.023 61.355C45.5159 61.7691 46.1383 61.9973 46.782 62H59.218C59.9556 61.9992 60.6627 61.7058 61.1843 61.1843C61.7058 60.6627 61.9992 59.9556 62 59.218V56.782C61.9977 56.1557 61.7843 55.5484 61.3941 55.0585C61.0039 54.5685 60.4599 54.2245 59.85 54.082C59.9453 53.8048 59.996 53.5141 60 53.221V50.782C59.996 50.4889 59.9453 50.1982 59.85 49.921C60.4599 49.7785 61.0039 49.4345 61.3941 48.9445C61.7843 48.4546 61.9977 47.8473 62 47.221V44.782C61.9971 44.128 61.7617 43.4964 61.336 43C61.7617 42.5036 61.9971 41.872 62 41.218V38.782C61.9992 38.0444 61.7058 37.3373 61.1843 36.8157C60.6627 36.2942 59.9556 36.0008 59.218 36ZM39.844 4.7C38.152 5.13469 36.3677 5.0433 34.729 4.438C35.4514 4.14943 36.2221 4.00079 37 4C37.9889 4.01365 38.9617 4.25307 39.844 4.7ZM31.611 5.338C33.86 6.323 36.343 7.413 39.594 6.81L35.465 13H28.535L23.375 5.26C26.649 3.162 28.862 4.13 31.611 5.335V5.338ZM27 17C26.7348 17 26.4804 16.8946 26.2929 16.7071C26.1054 16.5196 26 16.2652 26 16C26 15.7348 26.1054 15.4804 26.2929 15.2929C26.4804 15.1054 26.7348 15 27 15H37C37.2652 15 37.5196 15.1054 37.7071 15.2929C37.8946 15.4804 38 15.7348 38 16C38 16.2652 37.8946 16.5196 37.7071 16.7071C37.5196 16.8946 37.2652 17 37 17H27ZM20 53.218C19.9997 53.4253 19.9173 53.6241 19.7707 53.7707C19.6241 53.9173 19.4253 53.9997 19.218 54H6.782C6.57468 53.9997 6.37593 53.9173 6.22933 53.7707C6.08274 53.6241 6.00026 53.4253 6 53.218V50.782C6.00026 50.5747 6.08274 50.3759 6.22933 50.2293C6.37593 50.0827 6.57468 50.0003 6.782 50H8V52H10V50H12V52H14V50H16V52H18V50H19.218C19.4253 50.0003 19.6241 50.0827 19.7707 50.2293C19.9173 50.3759 19.9997 50.5747 20 50.782V53.218ZM4 38.782C4.00026 38.5747 4.08274 38.3759 4.22933 38.2293C4.37593 38.0827 4.57468 38.0003 4.782 38H6V40H8V38H10V40H12V38H14V40H16V38H17.218C17.4253 38.0003 17.6241 38.0827 17.7707 38.2293C17.9173 38.3759 17.9997 38.5747 18 38.782V41.218C17.9997 41.4253 17.9173 41.6241 17.7707 41.7707C17.6241 41.9173 17.4253 41.9997 17.218 42H4.782C4.57468 41.9997 4.37593 41.9173 4.22933 41.7707C4.08274 41.6241 4.00026 41.4253 4 41.218V38.782ZM4 44.782C4.00026 44.5747 4.08274 44.3759 4.22933 44.2293C4.37593 44.0827 4.57468 44.0003 4.782 44H6V46H8V44H10V46H12V44H14V46H16V44H17.218C17.4253 44.0003 17.6241 44.0827 17.7707 44.2293C17.9173 44.3759 17.9997 44.5747 18 44.782V47.218C17.9997 47.4253 17.9173 47.6241 17.7707 47.7707C17.6241 47.9173 17.4253 47.9997 17.218 48H4.782C4.57468 47.9997 4.37593 47.9173 4.22933 47.7707C4.08274 47.6241 4.00026 47.4253 4 47.218V44.782ZM18 59.218C17.9997 59.4253 17.9173 59.6241 17.7707 59.7707C17.6241 59.9173 17.4253 59.9997 17.218 60H4.782C4.57468 59.9997 4.37593 59.9173 4.22933 59.7707C4.08274 59.6241 4.00026 59.4253 4 59.218V56.782C4.00026 56.5747 4.08274 56.3759 4.22933 56.2293C4.37593 56.0827 4.57468 56.0003 4.782 56H6V58H8V56H10V58H12V56H14V58H16V56H17.218C17.4253 56.0003 17.6241 56.0827 17.7707 56.2293C17.9173 56.3759 17.9997 56.5747 18 56.782V59.218ZM25 50.782C25.0003 50.5747 25.0827 50.3759 25.2293 50.2293C25.3759 50.0827 25.5747 50.0003 25.782 50H27V52H29V50H31V52H33V50H35V52H37V50H38.218C38.4253 50.0003 38.6241 50.0827 38.7707 50.2293C38.9173 50.3759 38.9997 50.5747 39 50.782V53.218C38.9997 53.4253 38.9173 53.6241 38.7707 53.7707C38.6241 53.9173 38.4253 53.9997 38.218 54H25.782C25.5747 53.9997 25.3759 53.9173 25.2293 53.7707C25.0827 53.6241 25.0003 53.4253 25 53.218V50.782ZM25.782 60C25.5747 59.9997 25.3759 59.9173 25.2293 59.7707C25.0827 59.6241 25.0003 59.4253 25 59.218V56.782C25.0003 56.5747 25.0827 56.3759 25.2293 56.2293C25.3759 56.0827 25.5747 56.0003 25.782 56H27V58H29V56H31V58H33V56H35V58H37V56H38.218C38.4253 56.0003 38.6241 56.0827 38.7707 56.2293C38.9173 56.3759 38.9997 56.5747 39 56.782V59.218C38.9997 59.4253 38.9173 59.6241 38.7707 59.7707C38.6241 59.9173 38.4253 59.9997 38.218 60H25.782ZM46 38.782C46.0003 38.5747 46.0827 38.3759 46.2293 38.2293C46.3759 38.0827 46.5747 38.0003 46.782 38H48V40H50V38H52V40H54V38H56V40H58V38H59.218C59.4253 38.0003 59.6241 38.0827 59.7707 38.2293C59.9173 38.3759 59.9997 38.5747 60 38.782V41.218C59.9997 41.4253 59.9173 41.6241 59.7707 41.7707C59.6241 41.9173 59.4253 41.9997 59.218 42H46.782C46.5747 41.9997 46.3759 41.9173 46.2293 41.7707C46.0827 41.6241 46.0003 41.4253 46 41.218V38.782ZM44 50.782C44.0003 50.5747 44.0827 50.3759 44.2293 50.2293C44.3759 50.0827 44.5747 50.0003 44.782 50H46V52H48V50H50V52H52V50H54V52H56V50H57.218C57.4253 50.0003 57.6241 50.0827 57.7707 50.2293C57.9173 50.3759 57.9997 50.5747 58 50.782V53.218C57.9997 53.4253 57.9173 53.6241 57.7707 53.7707C57.6241 53.9173 57.4253 53.9997 57.218 54H44.782C44.5747 53.9997 44.3759 53.9173 44.2293 53.7707C44.0827 53.6241 44.0003 53.4253 44 53.218V50.782ZM60 59.218C59.9997 59.4253 59.9173 59.6241 59.7707 59.7707C59.6241 59.9173 59.4253 59.9997 59.218 60H46.782C46.5747 59.9997 46.3759 59.9173 46.2293 59.7707C46.0827 59.6241 46.0003 59.4253 46 59.218V56.782C46.0003 56.5747 46.0827 56.3759 46.2293 56.2293C46.3759 56.0827 46.5747 56.0003 46.782 56H48V58H50V56H52V58H54V56H56V58H58V56H59.218C59.4253 56.0003 59.6241 56.0827 59.7707 56.2293C59.9173 56.3759 59.9997 56.5747 60 56.782V59.218ZM60 47.218C59.9997 47.4253 59.9173 47.6241 59.7707 47.7707C59.6241 47.9173 59.4253 47.9997 59.218 48H46.782C46.5747 47.9997 46.3759 47.9173 46.2293 47.7707C46.0827 47.6241 46.0003 47.4253 46 47.218V44.782C46.0003 44.5747 46.0827 44.3759 46.2293 44.2293C46.3759 44.0827 46.5747 44.0003 46.782 44H48V46H50V44H52V46H54V44H56V46H58V44H59.218C59.4253 44.0003 59.6241 44.0827 59.7707 44.2293C59.9173 44.3759 59.9997 44.5747 60 44.782V47.218Z" fill="#EEF300"/>
</svg>
