<svg width="48" height="48" viewBox="0 0 48 48" fill="none" xmlns="http://www.w3.org/2000/svg">
<path d="M43.9999 37H40.9999V35C40.9999 34.73 40.9699 34.47 40.9599 34.2C40.9699 34.13 40.9999 34.07 40.9999 34C40.9999 33.88 40.9699 33.77 40.9299 33.66C40.2699 25.25 33.4599 18.55 24.9999 18.05V15H27.9999C28.5499 15 28.9999 14.55 28.9999 14C28.9999 13.45 28.5499 13 27.9999 13H19.9999C19.4499 13 18.9999 13.45 18.9999 14C18.9999 14.55 19.4499 15 19.9999 15H22.9999V18.05C14.5399 18.55 7.72994 25.24 7.06994 33.66C7.02994 33.77 6.99994 33.88 6.99994 34C6.99994 34.07 7.02994 34.13 7.03994 34.2C7.02994 34.47 6.99994 34.73 6.99994 35V37H3.99994C3.44994 37 2.99994 37.45 2.99994 38V42C2.99994 42.55 3.44994 43 3.99994 43H43.9999C44.5499 43 44.9999 42.55 44.9999 42V38C44.9999 37.45 44.5499 37 43.9999 37ZM23.9999 20C31.5899 20 37.8699 25.67 38.8499 33H9.14994C10.1299 25.67 16.4099 20 23.9999 20ZM8.99994 35H38.9999V37H8.99994V35ZM42.9999 41H4.99994V39H7.99994H39.9999H42.9999V41ZM23.8999 5C23.3499 5.01 22.9099 5.47 22.9199 6.02L22.9999 10.02C23.0099 10.56 23.4599 11 23.9999 11C24.0099 11 24.0099 11 24.0199 11C24.5699 10.99 25.0099 10.53 24.9999 9.98L24.9199 5.98C24.8999 5.43 24.4499 5 23.8999 5ZM11.2699 16.27C11.5299 16.27 11.7999 16.17 11.9899 15.96C12.3699 15.56 12.3599 14.93 11.9599 14.55L9.06994 11.78C8.66994 11.4 8.03994 11.41 7.65994 11.81C7.27994 12.21 7.28994 12.84 7.68994 13.22L10.5799 15.99C10.7699 16.18 11.0199 16.27 11.2699 16.27ZM3.99994 29.08C4.00994 29.08 4.02994 29.08 4.03994 29.08L6.03994 29C6.58994 28.98 7.01994 28.51 6.99994 27.96C6.97994 27.41 6.51994 26.97 5.95994 27L3.95994 27.08C3.40994 27.11 2.97994 27.57 2.99994 28.13C3.01994 28.66 3.46994 29.08 3.99994 29.08ZM42.0399 29L44.0399 28.92C44.5899 28.9 45.0199 28.43 44.9999 27.88C44.9799 27.33 44.5099 26.89 43.9599 26.92L41.9599 27C41.4099 27.02 40.9799 27.49 40.9999 28.04C41.0199 28.58 41.4699 29 41.9999 29C42.0099 29 42.0299 29 42.0399 29ZM36.7299 16.27C36.9899 16.27 37.2599 16.17 37.4499 15.96L40.2199 13.07C40.5999 12.67 40.5899 12.04 40.1899 11.66C39.7899 11.28 39.1599 11.29 38.7799 11.69L36.0099 14.58C35.6299 14.98 35.6399 15.61 36.0399 15.99C36.2299 16.18 36.4799 16.27 36.7299 16.27Z" fill="white"/>
</svg>
