<svg width="24" height="24" viewBox="0 0 24 24" fill="none" xmlns="http://www.w3.org/2000/svg">
<path d="M22.0001 18.5H20.5001V17.5C20.5001 17.365 20.4851 17.235 20.4801 17.1C20.4851 17.065 20.5001 17.035 20.5001 17C20.5001 16.94 20.4851 16.885 20.4651 16.83C20.1351 12.625 16.7301 9.275 12.5001 9.025V7.5H14.0001C14.2751 7.5 14.5001 7.275 14.5001 7C14.5001 6.725 14.2751 6.5 14.0001 6.5H10.0001C9.72509 6.5 9.50009 6.725 9.50009 7C9.50009 7.275 9.72509 7.5 10.0001 7.5H11.5001V9.025C7.27009 9.275 3.86509 12.62 3.53509 16.83C3.51509 16.885 3.50009 16.94 3.50009 17C3.50009 17.035 3.51509 17.065 3.52009 17.1C3.51509 17.235 3.50009 17.365 3.50009 17.5V18.5H2.00009C1.72509 18.5 1.50009 18.725 1.50009 19V21C1.50009 21.275 1.72509 21.5 2.00009 21.5H22.0001C22.2751 21.5 22.5001 21.275 22.5001 21V19C22.5001 18.725 22.2751 18.5 22.0001 18.5ZM12.0001 10C15.7951 10 18.9351 12.835 19.4251 16.5H4.57509C5.06509 12.835 8.20509 10 12.0001 10ZM4.50009 17.5H19.5001V18.5H4.50009V17.5ZM21.5001 20.5H2.50009V19.5H4.00009H20.0001H21.5001V20.5ZM11.9501 2.5C11.6751 2.505 11.4551 2.735 11.4601 3.01L11.5001 5.01C11.5051 5.28 11.7301 5.5 12.0001 5.5C12.0051 5.5 12.0051 5.5 12.0101 5.5C12.2851 5.495 12.5051 5.265 12.5001 4.99L12.4601 2.99C12.4501 2.715 12.2251 2.5 11.9501 2.5ZM5.63509 8.135C5.76509 8.135 5.90009 8.085 5.99509 7.98C6.18509 7.78 6.18009 7.465 5.98009 7.275L4.53509 5.89C4.33509 5.7 4.02009 5.705 3.83009 5.905C3.64009 6.105 3.64509 6.42 3.84509 6.61L5.29009 7.995C5.38509 8.09 5.51009 8.135 5.63509 8.135ZM2.00009 14.54C2.00509 14.54 2.01509 14.54 2.02009 14.54L3.02009 14.5C3.29509 14.49 3.51009 14.255 3.50009 13.98C3.49009 13.705 3.26009 13.485 2.98009 13.5L1.98009 13.54C1.70509 13.555 1.49009 13.785 1.50009 14.065C1.51009 14.33 1.73509 14.54 2.00009 14.54ZM21.0201 14.5L22.0201 14.46C22.2951 14.45 22.5101 14.215 22.5001 13.94C22.4901 13.665 22.2551 13.445 21.9801 13.46L20.9801 13.5C20.7051 13.51 20.4901 13.745 20.5001 14.02C20.5101 14.29 20.7351 14.5 21.0001 14.5C21.0051 14.5 21.0151 14.5 21.0201 14.5ZM18.3651 8.135C18.4951 8.135 18.6301 8.085 18.7251 7.98L20.1101 6.535C20.3001 6.335 20.2951 6.02 20.0951 5.83C19.8951 5.64 19.5801 5.645 19.3901 5.845L18.0051 7.29C17.8151 7.49 17.8201 7.805 18.0201 7.995C18.1151 8.09 18.2401 8.135 18.3651 8.135Z" fill="#232323"/>
</svg>
