<svg width="30" height="30" viewBox="0 0 30 30" fill="none" xmlns="http://www.w3.org/2000/svg">
<path d="M15.0169 0.837893C7.19597 0.833224 0.852008 7.16957 0.847338 14.9906C0.842669 22.8115 7.17902 29.1555 15 29.1602C18.7574 29.1663 22.3624 27.6752 25.0177 25.0167C27.6739 22.3627 29.1674 18.7624 29.1696 15.0075C29.1743 7.18652 22.8379 0.842562 15.0169 0.837893ZM15.0174 27.7435C7.97875 27.7482 2.26902 22.0463 2.26418 15.0077C2.25942 7.96913 7.96145 2.25932 15 2.25456C18.3817 2.24851 21.6264 3.59029 24.016 5.98299C26.4066 8.37128 27.7509 11.6112 27.7531 14.9904C27.758 22.0289 22.0559 27.7387 15.0174 27.7435ZM16.0015 14.999L20.5089 10.4917C20.7788 10.2163 20.7788 9.77559 20.5089 9.50019C20.2351 9.22082 19.7867 9.21632 19.5073 9.49008L15 13.9974L10.4927 9.49016C10.2173 9.2203 9.77656 9.2203 9.50116 9.49016C9.22179 9.76391 9.21729 10.2123 9.49105 10.4917L13.9984 14.999L9.49105 19.5064C9.35823 19.6392 9.2837 19.8193 9.28361 20.0071C9.28361 20.3983 9.60069 20.7154 9.99186 20.7155C10.1798 20.7158 10.36 20.6411 10.4927 20.508L15 16.0007L19.5073 20.508C19.64 20.6411 19.8202 20.7158 20.0081 20.7155C20.1959 20.7154 20.376 20.6409 20.5088 20.5082C20.7855 20.2315 20.7855 19.783 20.5089 19.5064L16.0015 14.999Z" fill="#fff"/>
</svg>
