<svg width="24" height="24" viewBox="0 0 24 24" fill="none" xmlns="http://www.w3.org/2000/svg">
<path d="M21.22 10.2968L17.6575 13.8593C17.0786 14.4374 16.3742 14.8742 15.599 15.1357C14.8238 15.3972 13.9988 15.4765 13.188 15.3673C12.3772 15.2581 11.6025 14.9634 10.9242 14.5061C10.2458 14.0488 9.68201 13.4412 9.27666 12.7306C9.22605 12.6449 9.19299 12.5501 9.1794 12.4515C9.16581 12.353 9.17196 12.2527 9.1975 12.1565C9.22304 12.0604 9.26745 11.9703 9.32816 11.8914C9.38886 11.8126 9.46463 11.7467 9.55107 11.6974C9.63751 11.6482 9.73289 11.6166 9.83164 11.6046C9.9304 11.5925 10.0306 11.6003 10.1263 11.6273C10.222 11.6544 10.3114 11.7002 10.3893 11.7621C10.4671 11.8241 10.5319 11.9009 10.5798 11.9881C10.8705 12.4986 11.2752 12.9351 11.7622 13.2637C12.2493 13.5923 12.8055 13.804 13.3878 13.8825C13.97 13.9609 14.5625 13.9039 15.1191 13.716C15.6758 13.528 16.1815 13.2142 16.597 12.7988L20.1595 9.23633C20.8754 8.52059 21.2776 7.5498 21.2776 6.53753C21.2777 5.52525 20.8756 4.55441 20.1599 3.83858C19.4442 3.12274 18.4734 2.72055 17.4611 2.72048C16.4488 2.72041 15.478 3.12246 14.7622 3.8382L11.4959 7.10445C11.3545 7.24107 11.165 7.31667 10.9684 7.31496C10.7717 7.31325 10.5836 7.23437 10.4445 7.09531C10.3055 6.95626 10.2266 6.76815 10.2249 6.5715C10.2232 6.37485 10.2988 6.1854 10.4354 6.04395L13.7017 2.7777C14.6988 1.7807 16.0511 1.22063 17.4611 1.2207C18.1593 1.22074 18.8506 1.35829 19.4957 1.6255C20.1407 1.89272 20.7267 2.28436 21.2204 2.77807C21.7141 3.27179 22.1057 3.8579 22.3728 4.50295C22.64 5.148 22.7774 5.83935 22.7774 6.53753C22.7774 7.23571 22.6398 7.92705 22.3726 8.57207C22.1054 9.21709 21.7137 9.80316 21.22 10.2968ZM12.5009 16.895L9.23466 20.1612C8.88009 20.5156 8.45919 20.7967 7.99599 20.9884C7.53279 21.1802 7.03636 21.2788 6.53504 21.2787C6.03373 21.2785 5.53735 21.1797 5.07424 20.9877C4.61113 20.7958 4.19037 20.5145 3.83597 20.1599C3.12024 19.4438 2.71828 18.4727 2.71852 17.4603C2.71877 16.4478 3.1212 15.4769 3.83728 14.7612L7.39978 11.1987C7.81561 10.784 8.32142 10.4707 8.87794 10.2831C9.43446 10.0956 10.0267 10.0388 10.6087 10.1172C11.1908 10.1957 11.7469 10.4072 12.2339 10.7353C12.7209 11.0635 13.1258 11.4995 13.417 12.0095C13.4649 12.0967 13.5297 12.1735 13.6075 12.2354C13.6854 12.2973 13.7748 12.3432 13.8705 12.3702C13.9663 12.3973 14.0664 12.405 14.1652 12.393C14.2639 12.3809 14.3593 12.3494 14.4457 12.3001C14.5322 12.2509 14.608 12.1849 14.6687 12.1061C14.7294 12.0273 14.7738 11.9372 14.7993 11.841C14.8249 11.7448 14.831 11.6446 14.8174 11.546C14.8038 11.4475 14.7708 11.3526 14.7202 11.267C14.3152 10.5558 13.7516 9.9478 13.0733 9.49014C12.3949 9.03247 11.6201 8.73755 10.8091 8.62832C9.9981 8.5191 9.17284 8.59852 8.39756 8.8604C7.62229 9.12229 6.91792 9.55957 6.33928 10.1382L2.77678 13.7007C1.77944 14.6977 1.219 16.0501 1.21875 17.4603C1.2185 18.8705 1.77847 20.223 2.77547 21.2204C3.77247 22.2177 5.12483 22.7782 6.53504 22.7784C7.94526 22.7787 9.29781 22.2187 10.2952 21.2217L13.5614 17.9555C13.698 17.814 13.7736 17.6245 13.7719 17.4279C13.7702 17.2313 13.6913 17.0431 13.5523 16.9041C13.4132 16.765 13.2251 16.6862 13.0285 16.6844C12.8318 16.6827 12.6424 16.7583 12.5009 16.895Z" fill="#248FEC"/>
</svg>
