<svg width="34" height="34" viewBox="0 0 34 34" fill="none" xmlns="http://www.w3.org/2000/svg">
<path d="M17 31.7383C8.91857 31.7383 2.34485 25.1646 2.34485 17.0832C2.34485 9.0017 8.91857 2.42798 17 2.42798C25.0815 2.42798 31.6552 9.0017 31.6552 17.0832C31.6552 25.1646 25.0815 31.7383 17 31.7383ZM17 4.77281C10.2117 4.77281 4.68968 10.2949 4.68968 17.0832C4.68968 23.8714 10.2117 29.3935 17 29.3935C23.7883 29.3935 29.3104 23.8703 29.3104 17.0832C29.3104 10.296 23.7883 4.77281 17 4.77281Z" fill="white"/>
<path d="M24.0345 18.2557H9.9655C9.65456 18.2557 9.35635 18.1322 9.13648 17.9123C8.91661 17.6925 8.79309 17.3942 8.79309 17.0833C8.79309 16.7724 8.91661 16.4742 9.13648 16.2543C9.35635 16.0344 9.65456 15.9109 9.9655 15.9109H24.0345C24.3454 15.9109 24.6436 16.0344 24.8635 16.2543C25.0834 16.4742 25.2069 16.7724 25.2069 17.0833C25.2069 17.3942 25.0834 17.6925 24.8635 17.9123C24.6436 18.1322 24.3454 18.2557 24.0345 18.2557Z" fill="white"/>
</svg>
