<svg width="30" height="30" viewBox="0 0 30 30" fill="none" xmlns="http://www.w3.org/2000/svg">
<path fill-rule="evenodd" clip-rule="evenodd" d="M19.9276 8.38589C20.1086 8.31478 20.3056 8.29441 20.4973 8.32698C20.689 8.35955 20.8682 8.44382 21.0156 8.57071C21.1629 8.69759 21.2729 8.86229 21.3336 9.04705C21.3942 9.2318 21.4033 9.42962 21.3599 9.61917L20.8579 9.50413L21.3599 9.61917L18.8478 20.581C18.8065 20.7614 18.719 20.928 18.5939 21.0645C18.4688 21.2009 18.3104 21.3025 18.1342 21.3593C17.958 21.4161 17.7701 21.4262 17.5889 21.3886C17.4076 21.3509 17.2393 21.2668 17.1003 21.1445L11.2027 15.9546L7.78285 15.2706C7.5565 15.2254 7.35089 15.108 7.1968 14.9361C7.0427 14.7643 6.9484 14.5471 6.92801 14.3172C6.90761 14.0873 6.96222 13.8569 7.08366 13.6606C7.2051 13.4643 7.38684 13.3126 7.60168 13.2282L7.79705 13.7255L7.60168 13.2282L19.9276 8.38589ZM20.3183 9.38047L7.99241 14.2228L11.5528 14.9349C11.6449 14.9533 11.7305 14.9956 11.801 15.0577L17.8062 20.3423L20.3183 9.38047Z" fill="#248FEC"/>
<path fill-rule="evenodd" clip-rule="evenodd" d="M20.972 8.58064C21.1447 8.81986 21.0909 9.15383 20.8517 9.3266L11.7612 15.8919C11.522 16.0647 11.188 16.0108 11.0153 15.7716C10.8425 15.5324 10.8964 15.1984 11.1356 15.0256L20.226 8.46032C20.4652 8.28756 20.7992 8.34142 20.972 8.58064Z" fill="#248FEC"/>
<path fill-rule="evenodd" clip-rule="evenodd" d="M11.4484 14.9246C11.7434 14.9246 11.9826 15.1638 11.9826 15.4589V19.8074L12.3604 20.1852L11.9826 19.8074L14.0697 17.7203C14.2784 17.5117 14.6167 17.5117 14.8253 17.7203C15.034 17.929 15.034 18.2673 14.8253 18.4759L12.7383 20.563L12.3827 20.2075L12.7382 20.563C12.5888 20.7125 12.3984 20.8142 12.1911 20.8555C11.9838 20.8967 11.769 20.8755 11.5737 20.7947C11.3785 20.7138 11.2116 20.5768 11.0942 20.4011C10.9767 20.2254 10.9141 20.0188 10.9141 19.8074V15.4589C10.9141 15.1638 11.1533 14.9246 11.4484 14.9246Z" fill="#248FEC"/>
<circle cx="15" cy="15" r="14.5" stroke="#248FEC"/>
</svg>
