<svg width="24" height="24" viewBox="0 0 24 24" fill="none" xmlns="http://www.w3.org/2000/svg">
<g clip-path="url(#clip0_2030_22217)">
<path d="M12 0.500011C9.91442 0.50022 7.86816 1.06758 6.08024 2.14137C4.29233 3.21515 2.83008 4.75494 1.85002 6.59589C0.869957 8.43685 0.408977 10.5097 0.516425 12.5925C0.623873 14.6753 1.2957 16.6897 2.46 18.42L0.5 23.5L5.73 21.63C7.22993 22.6091 8.93783 23.2242 10.7176 23.4265C12.4973 23.6287 14.2997 23.4124 15.981 22.7948C17.6624 22.1772 19.1763 21.1754 20.4019 19.8692C21.6276 18.5631 22.5312 16.9886 23.0408 15.2715C23.5503 13.5543 23.6517 11.7418 23.3369 9.97849C23.022 8.21519 22.2996 6.54981 21.2272 5.11509C20.1549 3.68038 18.7622 2.51599 17.1602 1.71474C15.5582 0.913491 13.7912 0.49753 12 0.500011Z" stroke="white" stroke-linecap="round" stroke-linejoin="round"/>
<path d="M9.49989 14.5C10.7999 15.8 13.6699 17.5 14.9999 17.5C15.5833 17.506 16.1509 17.3102 16.6065 16.9457C17.0621 16.5813 17.3777 16.0705 17.4999 15.5V14.5C17.4999 14.5 16.2699 13.9 15.4999 13.5C14.7299 13.1 13.4999 14.5 13.4999 14.5C12.564 14.1951 11.7093 13.6823 10.9999 13C10.3176 12.2906 9.80478 11.4359 9.49989 10.5C9.49989 10.5 10.8999 9.27 10.4999 8.5C10.0999 7.73 9.49989 6.5 9.49989 6.5H8.49989C7.92938 6.62219 7.41864 6.93782 7.05416 7.39341C6.68968 7.84901 6.49387 8.41658 6.49989 9C6.49989 10.33 8.19989 13.2 9.49989 14.5Z" stroke="white" stroke-linecap="round" stroke-linejoin="round"/>
</g>
<defs>
<clipPath id="clip0_2030_22217">
<rect width="24" height="24" fill="white"/>
</clipPath>
</defs>
</svg>
