<svg width="34" height="34" viewBox="0 0 34 34" fill="none" xmlns="http://www.w3.org/2000/svg">
<g clip-path="url(#clip0_2026_21930)">
<path d="M6.04297 20.434C5.64895 20.434 5.26378 20.5508 4.93617 20.7697C4.60856 20.9886 4.35321 21.2998 4.20243 21.6638C4.05164 22.0278 4.01219 22.4284 4.08906 22.8148C4.16593 23.2013 4.35567 23.5562 4.63428 23.8349C4.91289 24.1135 5.26787 24.3032 5.65431 24.3801C6.04076 24.4569 6.44132 24.4175 6.80535 24.2667C7.16937 24.1159 7.48051 23.8606 7.69941 23.533C7.91832 23.2053 8.03516 22.8202 8.03516 22.4262C8.03456 21.898 7.82448 21.3916 7.451 21.0181C7.07752 20.6447 6.57115 20.4346 6.04297 20.434ZM6.04297 23.4223C5.84596 23.4223 5.65338 23.3638 5.48957 23.2544C5.32576 23.1449 5.19809 22.9894 5.1227 22.8074C5.04731 22.6253 5.02758 22.4251 5.06601 22.2318C5.10445 22.0386 5.19932 21.8611 5.33862 21.7218C5.47793 21.5825 5.65542 21.4876 5.84864 21.4492C6.04186 21.4108 6.24215 21.4305 6.42416 21.5059C6.60617 21.5813 6.76174 21.709 6.87119 21.8728C6.98064 22.0366 7.03906 22.2292 7.03906 22.4262C7.03876 22.6902 6.93372 22.9434 6.74698 23.1302C6.56024 23.3169 6.30706 23.422 6.04297 23.4223ZM34 14.6234V13.4281C33.9996 13.1024 33.8701 12.7901 33.6398 12.5598C33.4095 12.3295 33.0972 12.1999 32.7715 12.1996H30.3697C30.1589 12.1999 29.9517 12.2544 29.768 12.358C29.5844 12.4616 29.4305 12.6108 29.3213 12.7911L27.6133 8.35056C27.4432 7.9141 27.1543 7.53403 26.7792 7.25344C26.4041 6.97285 25.9579 6.80297 25.4912 6.76305V6.44775C25.4912 6.31566 25.4387 6.18898 25.3453 6.09558C25.2519 6.00218 25.1252 5.94971 24.9931 5.94971C24.861 5.94971 24.7344 6.00218 24.6409 6.09558C24.5475 6.18898 24.4951 6.31566 24.4951 6.44775V6.75428H9.98943V6.44775C9.98943 6.31566 9.93695 6.18898 9.84355 6.09558C9.75015 6.00218 9.62347 5.94971 9.49138 5.94971C9.35929 5.94971 9.23261 6.00218 9.13921 6.09558C9.0458 6.18898 8.99333 6.31566 8.99333 6.44775V6.75428H8.71091C8.20803 6.75634 7.71742 6.90969 7.3029 7.19438C6.88837 7.47908 6.56912 7.88194 6.38669 8.35056L4.67872 12.7911C4.56946 12.6108 4.41561 12.4616 4.23198 12.358C4.04835 12.2544 3.84113 12.1999 3.6303 12.1996H1.22852C0.902801 12.1999 0.590527 12.3295 0.360212 12.5598C0.129897 12.7901 0.000351554 13.1024 0 13.4281L0 14.6234C0.000351554 14.9491 0.129897 15.2614 0.360212 15.4917C0.590527 15.722 0.902801 15.8516 1.22852 15.8519H2.95508C2.32797 16.7222 1.99105 17.768 1.99219 18.8407V27.1742C1.99249 27.6078 2.10599 28.0339 2.32145 28.4102C2.53692 28.7865 2.84689 29.1001 3.2207 29.3199V32.6054C3.22081 32.7404 3.24061 32.8747 3.27947 33.004H0.498047C0.365957 33.004 0.239276 33.0565 0.145875 33.1499C0.0524726 33.2433 0 33.37 0 33.5021C0 33.6341 0.0524726 33.7608 0.145875 33.8542C0.239276 33.9476 0.365957 34.0001 0.498047 34.0001H33.502C33.634 34.0001 33.7607 33.9476 33.8541 33.8542C33.9475 33.7608 34 33.6341 34 33.5021C34 33.37 33.9475 33.2433 33.8541 33.1499C33.7607 33.0565 33.634 33.004 33.502 33.004H30.7205C30.7594 32.8747 30.7792 32.7404 30.7793 32.6054V29.3198C31.1531 29.1 31.4631 28.7865 31.6785 28.4102C31.894 28.0339 32.0075 27.6078 32.0078 27.1742V18.8407C32.009 17.768 31.672 16.7222 31.0449 15.8519H32.7715C33.0972 15.8516 33.4095 15.722 33.6398 15.4917C33.8701 15.2614 33.9996 14.9491 34 14.6234ZM1.22852 14.8558C1.1669 14.8558 1.10782 14.8313 1.06425 14.7877C1.02067 14.7441 0.996164 14.685 0.996094 14.6234V13.4281C0.996164 13.3665 1.02067 13.3074 1.06425 13.2638C1.10782 13.2203 1.1669 13.1958 1.22852 13.1957H3.6303C3.69192 13.1958 3.75099 13.2203 3.79457 13.2638C3.83814 13.3074 3.86265 13.3665 3.86272 13.4281V14.6234C3.86265 14.685 3.83814 14.7441 3.79457 14.7877C3.75099 14.8313 3.69192 14.8558 3.6303 14.8558H1.22852ZM7.86914 32.6054C7.86902 32.7111 7.82698 32.8124 7.75225 32.8871C7.67751 32.9619 7.57619 33.0039 7.4705 33.004H4.61543C4.50975 33.0039 4.40842 32.9619 4.33369 32.8871C4.25896 32.8124 4.21692 32.7111 4.2168 32.6054V29.6501C4.30502 29.6596 4.39369 29.6644 4.48242 29.6644H7.86914V32.6054ZM8.80647 33.004C8.84533 32.8747 8.86512 32.7404 8.86523 32.6054V29.6644H25.1348V32.6054C25.1349 32.7404 25.1547 32.8747 25.1935 33.004H8.80647ZM9.40346 28.6683L10.6155 27.6179C11.0198 27.2675 11.5369 27.0746 12.072 27.0746H21.8616C22.3966 27.0746 22.9138 27.2675 23.3181 27.6179L24.5301 28.6683H9.40346ZM29.7832 32.6054C29.7831 32.7111 29.741 32.8124 29.6663 32.8871C29.5916 32.9619 29.4903 33.0039 29.3846 33.004H26.5295C26.4238 33.0039 26.3225 32.9619 26.2478 32.8871C26.173 32.8124 26.131 32.7111 26.1309 32.6054V29.6644H29.5176C29.6063 29.6644 29.695 29.6596 29.7832 29.6501V32.6054ZM31.0117 27.1742C31.0113 27.5703 30.8537 27.9501 30.5736 28.2302C30.2935 28.5103 29.9137 28.6679 29.5176 28.6683H26.051L23.9705 26.8652C23.385 26.3578 22.6363 26.0785 21.8616 26.0785H12.072C11.2973 26.0785 10.5486 26.3578 9.96313 26.8652L7.88262 28.6683H4.48242C4.08629 28.6679 3.7065 28.5103 3.42639 28.2302C3.14628 27.9501 2.98872 27.5703 2.98828 27.1742V18.8407C2.9869 17.7931 3.38521 16.7845 4.10198 16.0205C4.55314 15.5393 4.90664 14.975 5.1429 14.3591L7.31638 8.70816C7.42584 8.42699 7.61739 8.18527 7.8661 8.01445C8.11482 7.84363 8.40918 7.75162 8.71091 7.75038H25.2891C25.5908 7.75162 25.8852 7.84363 26.1339 8.01445C26.3826 8.18527 26.5742 8.42699 26.6836 8.70816L28.8571 14.3591C29.0934 14.975 29.4469 15.5392 29.898 16.0205C30.6148 16.7845 31.0131 17.7931 31.0117 18.8407V27.1742ZM30.3697 14.8558C30.3081 14.8558 30.249 14.8313 30.2054 14.7877C30.1619 14.7441 30.1374 14.685 30.1373 14.6234V13.4281C30.1374 13.3665 30.1619 13.3074 30.2054 13.2638C30.249 13.2203 30.3081 13.1958 30.3697 13.1957H32.7715C32.8331 13.1958 32.8922 13.2203 32.9358 13.2638C32.9793 13.3074 33.0038 13.3665 33.0039 13.4281V14.6234C33.0038 14.685 32.9793 14.7441 32.9358 14.7877C32.8922 14.8313 32.8331 14.8558 32.7715 14.8558H30.3697ZM23.3388 20.434H10.6612C10.4721 20.434 10.2866 20.4861 10.1251 20.5846C9.9637 20.6831 9.83251 20.8242 9.74597 20.9923C9.65944 21.1605 9.62091 21.3492 9.63462 21.5379C9.64833 21.7265 9.71374 21.9077 9.82368 22.0616L11.0568 23.7882C11.1522 23.9214 11.2779 24.0299 11.4236 24.1049C11.5693 24.1798 11.7307 24.219 11.8945 24.2191H22.1055C22.2693 24.219 22.4307 24.1798 22.5764 24.1048C22.722 24.0299 22.8477 23.9213 22.9431 23.7882L24.1763 22.0616C24.2863 21.9077 24.3517 21.7265 24.3654 21.5379C24.3791 21.3492 24.3406 21.1605 24.254 20.9923C24.1675 20.8242 24.0363 20.6831 23.8749 20.5846C23.7134 20.4861 23.5279 20.434 23.3388 20.434ZM23.3658 21.4825L22.1325 23.2091C22.1295 23.2134 22.1254 23.2169 22.1207 23.2193C22.116 23.2218 22.1108 23.223 22.1055 23.223H11.8945C11.8892 23.223 11.884 23.2218 11.8793 23.2193C11.8746 23.2169 11.8705 23.2134 11.8675 23.2091L10.6342 21.4825C10.6307 21.4776 10.6286 21.4717 10.6282 21.4657C10.6277 21.4596 10.629 21.4535 10.6317 21.4481C10.6345 21.4427 10.6387 21.4381 10.6439 21.435C10.6491 21.4318 10.6551 21.4301 10.6612 21.4301H23.3388C23.3449 21.4301 23.3509 21.4318 23.3561 21.435C23.3612 21.4381 23.3655 21.4427 23.3683 21.4481C23.371 21.4535 23.3723 21.4596 23.3718 21.4657C23.3714 21.4717 23.3693 21.4776 23.3658 21.4825ZM6.04297 16.8292H27.957C28.0379 16.8292 28.1176 16.8095 28.1892 16.7718C28.2608 16.7341 28.3221 16.6795 28.3679 16.6127C28.4136 16.546 28.4424 16.4691 28.4517 16.3887C28.4611 16.3083 28.4507 16.2269 28.4215 16.1514L25.7074 9.14026C25.6711 9.04654 25.6073 8.96598 25.5244 8.90917C25.4415 8.85237 25.3434 8.82197 25.2429 8.82198H8.75712C8.65663 8.82197 8.55848 8.85237 8.47557 8.90917C8.39267 8.96598 8.32889 9.04654 8.29261 9.14026L5.57852 16.1514C5.54933 16.2269 5.53896 16.3083 5.54831 16.3887C5.55766 16.4691 5.58645 16.5459 5.63219 16.6127C5.67792 16.6794 5.73923 16.734 5.8108 16.7717C5.88238 16.8094 5.96206 16.8292 6.04297 16.8292V16.8292ZM9.09832 9.81807H24.9017L27.2301 15.8331H6.76985L9.09832 9.81807ZM27.957 20.434C27.563 20.434 27.1778 20.5508 26.8502 20.7697C26.5226 20.9886 26.2673 21.2998 26.1165 21.6638C25.9657 22.0278 25.9263 22.4284 26.0031 22.8148C26.08 23.2013 26.2697 23.5562 26.5483 23.8349C26.827 24.1135 27.1819 24.3032 27.5684 24.3801C27.9548 24.4569 28.3554 24.4175 28.7194 24.2667C29.0834 24.1159 29.3946 23.8606 29.6135 23.533C29.8324 23.2053 29.9492 22.8202 29.9492 22.4262C29.9486 21.898 29.7385 21.3916 29.3651 21.0181C28.9916 20.6447 28.4852 20.4346 27.957 20.434ZM27.957 23.4223C27.76 23.4223 27.5674 23.3638 27.4036 23.2544C27.2398 23.1449 27.1122 22.9894 27.0368 22.8074C26.9614 22.6253 26.9416 22.4251 26.9801 22.2318C27.0185 22.0386 27.1134 21.8611 27.2527 21.7218C27.392 21.5825 27.5695 21.4876 27.7627 21.4492C27.9559 21.4108 28.1562 21.4305 28.3382 21.5059C28.5202 21.5813 28.6758 21.709 28.7853 21.8728C28.8947 22.0366 28.9531 22.2292 28.9531 22.4262C28.9528 22.6902 28.8478 22.9434 28.661 23.1302C28.4743 23.3169 28.2211 23.422 27.957 23.4223Z" fill="#248FEC"/>
</g>
<defs>
<clipPath id="clip0_2026_21930">
<rect width="34" height="34" fill="white"/>
</clipPath>
</defs>
</svg>
