<svg width="34" height="34" viewBox="0 0 34 34" fill="none" xmlns="http://www.w3.org/2000/svg">
<g clip-path="url(#clip0_2026_21867)">
<path fill-rule="evenodd" clip-rule="evenodd" d="M6.51666 16.0849L3.02741 13.9008C2.77914 13.7449 2.45083 13.8204 2.29535 14.069C2.13987 14.3176 2.21531 14.6456 2.46358 14.8011L5.95283 16.9856C6.2011 17.141 6.52941 17.0656 6.68489 16.8173C6.84037 16.5687 6.76493 16.2408 6.51666 16.0849ZM9.22037 7.70782L12.3905 12.771C12.546 13.0196 12.8743 13.095 13.1226 12.9392C13.3712 12.7837 13.4466 12.4558 13.2912 12.2072L10.121 7.14398C9.96554 6.89536 9.63758 6.81992 9.38895 6.9754C9.14033 7.13088 9.06489 7.45919 9.22037 7.70782Z" fill="#248FEC"/>
<path fill-rule="evenodd" clip-rule="evenodd" d="M1.57144 10.7022L0.549313 11.724C0.180979 12.0923 0.0803961 12.6508 0.297146 13.1243L0.939959 14.5293C1.1096 14.9005 1.45067 15.1654 1.85265 15.2377C2.25463 15.3099 2.66688 15.181 2.95552 14.892C4.59708 13.2504 8.57048 9.27739 10.212 7.63547C10.501 7.34682 10.63 6.93493 10.5577 6.53295C10.4851 6.13097 10.2205 5.78991 9.84902 5.61991L8.4444 4.9771C7.97052 4.7607 7.41235 4.86128 7.04402 5.22962L2.88221 9.39107C2.67502 9.59826 2.67502 9.93507 2.88221 10.1423C3.08975 10.3498 3.42621 10.3498 3.63375 10.1423L7.79521 5.9808C7.84975 5.92626 7.93227 5.91139 8.0024 5.94362L9.40702 6.58607C9.46227 6.61122 9.50123 6.66151 9.51186 6.72101C9.52283 6.78051 9.50371 6.84143 9.46085 6.88428L2.20433 14.1408C2.16148 14.1837 2.10056 14.2028 2.04106 14.1922C1.98156 14.1812 1.93127 14.1422 1.90613 14.0873C1.90613 14.087 1.26331 12.6823 1.26331 12.6823C1.23144 12.6122 1.24631 12.5297 1.30085 12.4752L2.32263 11.4534C2.52981 11.2462 2.52981 10.9094 2.32263 10.7022C2.11544 10.4947 1.77863 10.4947 1.57144 10.7022ZM11.1208 9.12474L4.34067 15.9049C4.13313 16.1121 4.13313 16.4489 4.34067 16.6561C4.54785 16.8633 4.88467 16.8633 5.09185 16.6561L11.872 9.87593C12.0792 9.66874 12.0792 9.33193 11.872 9.12474C11.6645 8.9172 11.328 8.9172 11.1208 9.12474ZM29.3378 17.3485L20.7064 22.7524C20.4581 22.9078 20.3826 23.2358 20.5381 23.4844C20.6936 23.7331 21.0219 23.8085 21.2702 23.6527L29.9016 18.2491C30.1502 18.0933 30.2256 17.7653 30.0702 17.5167C29.9143 17.2681 29.5864 17.1927 29.3378 17.3485ZM9.98077 18.0582L17.7069 5.71766C17.8624 5.46903 17.787 5.14107 17.5387 4.98524C17.2901 4.82976 16.9621 4.9052 16.8063 5.15382L9.08013 17.4944C8.92465 17.743 9.00008 18.071 9.24835 18.2268C9.49698 18.3823 9.82529 18.3069 9.98077 18.0582Z" fill="#248FEC"/>
<path fill-rule="evenodd" clip-rule="evenodd" d="M19.312 6.73975L17.1289 4.55631C17.0032 4.43058 16.9469 4.25173 16.9784 4.07677C17.0099 3.90181 17.125 3.75342 17.2865 3.67975L20.1907 2.35127C20.3968 2.25706 20.6394 2.30063 20.7999 2.46106L32.5943 14.2555C32.7548 14.4156 32.7983 14.6586 32.7041 14.8647L31.3756 17.7689C31.302 17.9304 31.1536 18.0455 30.9786 18.077C30.8036 18.1085 30.6244 18.0522 30.4991 17.9265L20.6986 8.12631C20.4914 7.91877 20.1546 7.91877 19.9474 8.12631C19.7398 8.3335 19.7398 8.67031 19.9474 8.8775C19.9474 8.8775 27.6718 16.6019 29.7475 18.678C30.1194 19.0495 30.6496 19.2156 31.167 19.1225C31.6845 19.0293 32.1233 18.6886 32.3418 18.2109C32.7764 17.261 33.3306 16.0494 33.6703 15.3067C33.9494 14.6972 33.8197 13.9782 33.3459 13.5043C31.2641 11.4229 23.6325 3.79096 21.551 1.70952C21.0772 1.23565 20.3582 1.10602 19.7487 1.3851L16.8445 2.71358C16.3668 2.9321 16.026 3.37092 15.9329 3.88835C15.8398 4.40579 16.0059 4.93598 16.3774 5.3075L18.5608 7.49094C18.768 7.69813 19.1048 7.69813 19.312 7.49094C19.5192 7.28375 19.5192 6.94694 19.312 6.73975ZM14.9221 7.94215L27.2032 20.2229C27.4104 20.4304 27.7472 20.4304 27.9544 20.2229C28.1619 20.0157 28.1619 19.6789 27.9544 19.4717L15.6737 7.1906C15.4661 6.98342 15.1297 6.98342 14.9221 7.1906C14.7149 7.39815 14.7149 7.7346 14.9221 7.94215ZM19.8277 17.6084L24.4166 22.1974C24.6238 22.4045 24.9606 22.4045 25.1678 22.1974C25.375 21.9898 25.375 21.6534 25.1678 21.4458L20.5789 16.8569C20.3717 16.6497 20.0349 16.6497 19.8277 16.8569C19.6201 17.0644 19.6201 17.4009 19.8277 17.6084ZM12.948 10.7287L17.447 15.2277C17.6545 15.4352 17.991 15.4352 18.1985 15.2277C18.4057 15.0205 18.4057 14.6837 18.1985 14.4765L13.6992 9.97754C13.492 9.77 13.1552 9.77 12.948 9.97754C12.7408 10.1847 12.7408 10.5212 12.948 10.7287ZM14.8339 17.3757L21.0329 23.5747C21.2404 23.7819 21.5769 23.7819 21.7844 23.5747C21.9916 23.3672 21.9916 23.0307 21.7844 22.8232L15.5855 16.6242C15.3779 16.417 15.0415 16.417 14.8339 16.6242C14.6267 16.8317 14.6267 17.1682 14.8339 17.3757ZM10.9367 13.4785L13.4807 16.0225C13.6882 16.2296 14.0247 16.2296 14.2322 16.0225C14.4394 15.8149 14.4394 15.4785 14.2322 15.2709L11.6882 12.7269C11.4807 12.5198 11.1442 12.5198 10.9367 12.7269C10.7295 12.9345 10.7295 13.2709 10.9367 13.4785Z" fill="#248FEC"/>
<path fill-rule="evenodd" clip-rule="evenodd" d="M20.5789 14.4765C19.7147 13.6123 18.3115 13.6123 17.447 14.4765C16.5828 15.3407 16.5828 16.7439 17.447 17.6084C18.3115 18.4726 19.7147 18.4726 20.5789 17.6084C21.443 16.7439 21.443 15.3407 20.5789 14.4765ZM19.8277 15.2277C20.2771 15.6775 20.2771 16.4074 19.8277 16.8568C19.3779 17.3066 18.6479 17.3066 18.1985 16.8568C17.7487 16.4074 17.7487 15.6775 18.1985 15.2277C18.6479 14.7782 19.3779 14.7782 19.8277 15.2277ZM9.79555 17.2404C5.51261 17.2404 2.0354 20.7176 2.0354 25.0002C2.0354 29.2831 5.51261 32.7603 9.79555 32.7603C14.0785 32.7603 17.5557 29.2831 17.5557 25.0002C17.5557 20.7176 14.0785 17.2404 9.79555 17.2404ZM9.79555 18.3029C13.492 18.3029 16.4932 21.3038 16.4932 25.0002C16.4932 28.6966 13.492 31.6978 9.79555 31.6978C6.09911 31.6978 3.0979 28.6966 3.0979 25.0002C3.0979 21.3038 6.09911 18.3029 9.79555 18.3029Z" fill="#248FEC"/>
<path fill-rule="evenodd" clip-rule="evenodd" d="M8.72809 22.1644C9.05994 22.0391 9.41978 21.9707 9.79555 21.9707C11.4676 21.9707 12.8251 23.3282 12.8251 25.0002C12.8251 26.6726 11.4676 28.0301 9.79555 28.0301C8.12353 28.0301 6.76601 26.6726 6.76601 25.0002C6.76601 24.2905 7.01074 23.6374 7.42015 23.1207C7.60219 22.8912 7.56359 22.5565 7.33374 22.3745C7.10424 22.1924 6.7699 22.231 6.58751 22.4605C6.0343 23.1586 5.70351 24.0412 5.70351 25.0002C5.70351 27.2588 7.53703 29.0926 9.79555 29.0926C12.0541 29.0926 13.8876 27.2588 13.8876 25.0002C13.8876 22.7417 12.0541 20.9082 9.79555 20.9082C9.28803 20.9082 8.80176 21.001 8.35303 21.1703C8.0789 21.2737 7.94007 21.5804 8.04349 21.8549C8.1469 22.129 8.45361 22.2678 8.72809 22.1644ZM21.2369 22.6645C18.4507 22.6645 16.189 24.9266 16.189 27.7125C16.189 30.4983 18.4507 32.7604 21.2369 32.7604C24.0228 32.7604 26.2848 30.4983 26.2848 27.7125C26.2848 24.9266 24.0228 22.6645 21.2369 22.6645ZM21.2369 23.727C23.4363 23.727 25.2223 25.5127 25.2223 27.7125C25.2223 29.9122 23.4363 31.6979 21.2369 31.6979C19.0372 31.6979 17.2515 29.9122 17.2515 27.7125C17.2515 25.5127 19.0372 23.727 21.2369 23.727Z" fill="#248FEC"/>
<path fill-rule="evenodd" clip-rule="evenodd" d="M21.2369 25.6697C20.1092 25.6697 19.1941 26.5848 19.1941 27.7125C19.1941 28.8398 20.1092 29.7553 21.2369 29.7553C22.3642 29.7553 23.2797 28.8398 23.2797 27.7125C23.2797 26.5848 22.3642 25.6697 21.2369 25.6697ZM21.2369 26.7322C21.7777 26.7322 22.2172 27.1713 22.2172 27.7125C22.2172 28.2537 21.7777 28.6928 21.2369 28.6928C20.6957 28.6928 20.2566 28.2537 20.2566 27.7125C20.2566 27.1713 20.6957 26.7322 21.2369 26.7322Z" fill="#248FEC"/>
</g>
<defs>
<clipPath id="clip0_2026_21867">
<rect width="34" height="34" fill="white"/>
</clipPath>
</defs>
</svg>
