<svg width="45" height="46" viewBox="0 0 45 46" fill="none" xmlns="http://www.w3.org/2000/svg">
<path d="M13.8455 12.6149C16.2686 12.6149 18.1724 14.5188 18.1724 16.9419C18.1724 14.5188 20.0762 12.6149 22.4993 12.6149C24.9224 12.6149 26.8262 14.5188 26.8262 16.9419C26.8262 14.5188 28.7301 12.6149 31.1532 12.6149C33.4032 12.6149 35.307 14.4322 35.4801 16.6822C35.4801 16.5092 35.4801 16.3361 35.4801 16.0765C35.4801 8.89378 29.682 3.0957 22.4993 3.0957C15.3166 3.0957 9.51855 8.89378 9.51855 16.0765C9.51855 16.2495 9.51855 16.4226 9.51855 16.6822C9.69163 14.4322 11.5955 12.6149 13.8455 12.6149Z" stroke="#248FEC" stroke-width="2" stroke-miterlimit="10" stroke-linecap="round" stroke-linejoin="round"/>
<path d="M29.4223 29.9229H15.5762V42.9036H29.4223V29.9229Z" stroke="#248FEC" stroke-width="2" stroke-miterlimit="10" stroke-linecap="round" stroke-linejoin="round"/>
<path d="M9.51855 16.9414L22.4993 29.9222L35.4801 16.9414" stroke="#248FEC" stroke-width="2" stroke-miterlimit="10" stroke-linecap="round" stroke-linejoin="round"/>
<path d="M42.4038 26.3743C42.4038 26.2878 42.4038 26.2012 42.4038 26.0282C42.4038 22.6532 40.1538 19.8839 37.125 19.0186" stroke="#248FEC" stroke-width="2" stroke-miterlimit="10" stroke-linecap="round" stroke-linejoin="round"/>
<path d="M32.0186 34.25H38.9416V41.1731H32.0186" stroke="#248FEC" stroke-width="2" stroke-miterlimit="10" stroke-linecap="round" stroke-linejoin="round"/>
<path d="M35.0479 33.8167L42.4036 26.4609" stroke="#248FEC" stroke-width="2" stroke-miterlimit="10" stroke-linecap="round" stroke-linejoin="round"/>
<path d="M19.9033 33.3838H25.0956" stroke="#248FEC" stroke-width="2" stroke-miterlimit="10" stroke-linecap="round" stroke-linejoin="round"/>
<path d="M42.4033 3.0957V5.69186" stroke="#248FEC" stroke-width="2" stroke-miterlimit="10" stroke-linecap="round" stroke-linejoin="round"/>
<path d="M42.4033 8.63379V11.7492" stroke="#248FEC" stroke-width="2" stroke-miterlimit="10" stroke-linecap="round" stroke-linejoin="round"/>
<path d="M42.4033 15.2109V17.8071" stroke="#248FEC" stroke-width="2" stroke-miterlimit="10" stroke-linecap="round" stroke-linejoin="round"/>
<path d="M35.4805 3.0957V5.69186" stroke="#248FEC" stroke-width="2" stroke-miterlimit="10" stroke-linecap="round" stroke-linejoin="round"/>
<path d="M2.5957 3.0957V5.69186" stroke="#248FEC" stroke-width="2" stroke-miterlimit="10" stroke-linecap="round" stroke-linejoin="round"/>
<path d="M2.5957 8.63379V11.7492" stroke="#248FEC" stroke-width="2" stroke-miterlimit="10" stroke-linecap="round" stroke-linejoin="round"/>
<path d="M2.5957 15.2109V17.8071" stroke="#248FEC" stroke-width="2" stroke-miterlimit="10" stroke-linecap="round" stroke-linejoin="round"/>
<path d="M9.51855 3.0957V5.69186" stroke="#248FEC" stroke-width="2" stroke-miterlimit="10" stroke-linecap="round" stroke-linejoin="round"/>
<path d="M2.5957 26.3743C2.5957 26.2878 2.5957 26.2012 2.5957 26.0282C2.5957 22.6532 4.8457 19.8839 7.87455 19.0186" stroke="#248FEC" stroke-width="2" stroke-miterlimit="10" stroke-linecap="round" stroke-linejoin="round"/>
<path d="M12.9807 34.25H6.05762V41.1731H12.9807" stroke="#248FEC" stroke-width="2" stroke-miterlimit="10" stroke-linecap="round" stroke-linejoin="round"/>
<path d="M9.95147 33.8167L2.5957 26.4609" stroke="#248FEC" stroke-width="2" stroke-miterlimit="10" stroke-linecap="round" stroke-linejoin="round"/>
</svg>
