<svg width="45" height="46" viewBox="0 0 45 46" fill="none" xmlns="http://www.w3.org/2000/svg">
<g clip-path="url(#clip0_1195_47772)">
<path d="M22.5 0.5C10.0836 0.5 0 10.5836 0 23C0 35.4164 10.0836 45.5 22.5 45.5C34.9164 45.5 45 35.4164 45 23C45 10.5836 34.9164 0.5 22.5 0.5ZM22.5 2.2442C25.2265 2.24136 27.9268 2.77628 30.4463 3.81835C32.9658 4.86042 35.255 6.38917 37.1829 8.31709C39.1108 10.245 40.6396 12.5342 41.6816 15.0537C42.7237 17.5732 43.2586 20.2735 43.2558 23C43.2586 25.7265 42.7237 28.4268 41.6816 30.9463C40.6396 33.4658 39.1108 35.755 37.1829 37.6829C35.255 39.6108 32.9658 41.1396 30.4463 42.1816C27.9268 43.2237 25.2265 43.7586 22.5 43.7558C19.7735 43.7586 17.0732 43.2237 14.5537 42.1816C12.0342 41.1396 9.74502 39.6108 7.81709 37.6829C5.88917 35.755 4.36042 33.4658 3.31835 30.9463C2.27628 28.4268 1.74136 25.7265 1.7442 23C1.74136 20.2735 2.27628 17.5732 3.31835 15.0537C4.36042 12.5342 5.88917 10.245 7.81709 8.31709C9.74502 6.38917 12.0342 4.86042 14.5537 3.81835C17.0732 2.77628 19.7735 2.24136 22.5 2.2442ZM29.1942 13.0442V15.6866C27.837 15.8126 26.5536 16.358 25.3692 17.15C23.6052 18.3272 22.0104 20.012 20.4192 21.7058C18.828 23.4014 17.2386 25.1168 15.6942 26.375C14.148 27.6332 12.6522 28.4 11.1942 28.4V30.2C13.2642 30.2 15.1146 29.1668 16.8192 27.7808C18.522 26.3948 20.1366 24.6236 21.7134 22.9442C23.2884 21.2648 24.858 19.6862 26.3808 18.6692C27.3582 18.0158 28.26 17.6036 29.1942 17.4884V20.3558L30.6558 19.2308L33.8058 16.7L29.1942 13.0442ZM11.1942 15.8V17.6C13.4856 17.6 15.9462 19.6664 18.45 22.2692L19.7442 20.975C17.181 18.311 14.4702 15.8 11.1942 15.8ZM22.3308 23.7308L21.0366 24.9692C22.5378 26.537 24.0372 28.0436 25.7058 29.075C26.7894 29.7446 27.9684 30.1982 29.1942 30.3134V32.9558L30.6558 31.8308L33.8058 29.3L29.1942 25.6442V28.5134C28.3572 28.4072 27.5364 28.0922 26.6616 27.5558C25.2432 26.6792 23.7996 25.268 22.3308 23.7308Z" fill="#248FEC"/>
</g>
<defs>
<clipPath id="clip0_1195_47772">
<rect width="45" height="45" fill="white" transform="translate(0 0.5)"/>
</clipPath>
</defs>
</svg>
