<svg width="45" height="46" viewBox="0 0 45 46" fill="none" xmlns="http://www.w3.org/2000/svg">
<path d="M44.2969 22.2849C44.2952 22.1909 44.2747 22.0981 44.2365 22.0121C44.1984 21.9261 44.1433 21.8486 44.0747 21.7843L32.8247 11.2374C32.8191 11.2318 32.8113 11.2297 32.8057 11.2248C30.8798 4.94586 27.5695 1.20312 23.9062 1.20312H11.25C5.33602 1.20312 0.703125 10.7776 0.703125 23C0.703125 35.2224 5.33602 44.7969 11.25 44.7969H23.9062C28.0034 44.7969 31.5928 40.1429 33.3492 32.7734L33.8084 33.8281C33.8471 33.9175 33.904 33.9978 33.9754 34.064C34.0468 34.1302 34.1312 34.1808 34.2232 34.2127C34.2973 34.2376 34.375 34.2502 34.4531 34.25C34.5694 34.2501 34.6839 34.2214 34.7864 34.1663L43.927 29.2445C44.0734 29.1659 44.1872 29.0381 44.2484 28.8837C44.3095 28.7292 44.314 28.5581 44.261 28.4007L42.8161 24.0688L44.0909 22.794C44.1576 22.7273 44.2102 22.6479 44.2456 22.5604C44.281 22.4729 44.2984 22.3793 44.2969 22.2849ZM37.2656 27.6287L26.756 17.1212L27.3396 12.4531H32.0625L42.5827 22.313L37.2656 27.6287ZM28.8281 23C28.8281 31.7019 26.2343 37.7656 23.9062 37.7656C21.5782 37.7656 18.9844 31.7019 18.9844 23C18.9844 17.2231 20.1663 12.0066 21.972 9.56328C22.323 9.90922 22.7617 10.153 23.2408 10.2685C23.72 10.3839 24.2215 10.3667 24.6916 10.2186L25.9861 11.9441L25.3181 17.2878C25.3048 17.394 25.316 17.5019 25.3507 17.6031C25.3854 17.7044 25.4428 17.7964 25.5185 17.8721L27.9127 20.2627L28.8225 22.3552C28.8281 22.5718 28.8281 22.7848 28.8281 23ZM23.9062 8.9375C23.6281 8.9375 23.3562 8.85502 23.125 8.7005C22.8937 8.54598 22.7135 8.32636 22.607 8.0694C22.5006 7.81244 22.4728 7.52969 22.527 7.2569C22.5813 6.98412 22.7152 6.73355 22.9119 6.53688C23.1085 6.34021 23.3591 6.20628 23.6319 6.15202C23.9047 6.09776 24.1874 6.12561 24.4444 6.23204C24.7014 6.33848 24.921 6.51872 25.0755 6.74998C25.23 6.98124 25.3125 7.25312 25.3125 7.53125C25.3125 7.90421 25.1643 8.2619 24.9006 8.52562C24.6369 8.78934 24.2792 8.9375 23.9062 8.9375ZM17.2793 43.373C15.3169 43.224 13.4888 41.6152 12.0059 39.032L14.1736 39.5741C14.95 41.0316 16.0052 42.3224 17.2793 43.373ZM11.1621 37.3712C10.9041 36.7981 10.6629 36.1892 10.4358 35.5536L12.6373 36.1822C12.8559 36.7869 13.0915 37.3641 13.3404 37.9161L11.1621 37.3712ZM4.92188 23C4.92188 22.6377 4.92656 22.2777 4.93594 21.92L7.0643 21.3118C7.04461 21.8687 7.03125 22.4305 7.03125 23C7.03125 23.1252 7.03477 23.2475 7.03547 23.372L4.93313 23.9724C4.92609 23.6497 4.92188 23.3263 4.92188 23ZM10.6172 20.48L8.5507 19.8894C8.59758 19.213 8.6618 18.5471 8.74336 17.8918L10.7684 18.4705C10.7023 19.1286 10.6519 19.7984 10.6172 20.48ZM10.5609 21.927C10.5518 22.2828 10.5469 22.64 10.5469 23C10.5469 23.303 10.5518 23.604 10.5574 23.9035L8.43961 23.2004C8.43961 23.1343 8.43961 23.0689 8.43961 23.0028C8.43961 22.4403 8.45297 21.8855 8.47406 21.3336L10.5609 21.927ZM8.47266 24.6875L10.6088 25.3998C10.6462 26.1296 10.6999 26.847 10.7698 27.552L8.6182 26.9375C8.55 26.2027 8.50289 25.4518 8.47266 24.6875ZM10.9336 17.0516L8.94023 16.482C9.04664 15.8047 9.16828 15.1428 9.30516 14.4964L11.2669 14.9562C11.1384 15.6397 11.0269 16.3391 10.9322 17.0544L10.9336 17.0516ZM7.06922 24.8281C7.095 25.5116 7.13555 26.1842 7.19086 26.8461L5.1518 27.429C5.08289 26.7685 5.02969 26.0984 4.99219 25.4187L7.06922 24.8281ZM9.91406 33.9413C9.72656 33.2973 9.5543 32.6307 9.39727 31.9416L11.577 32.5646C11.7359 33.2551 11.9137 33.9223 12.1057 34.5678L9.91406 33.9413ZM9.08367 30.3891C8.96977 29.7568 8.87016 29.1109 8.78484 28.4513L10.947 29.0694C11.0365 29.7303 11.1401 30.3772 11.2577 31.01L9.08367 30.3891ZM11.5446 13.5845L9.61945 13.133C9.81703 12.3596 10.035 11.6115 10.2748 10.9013L12.1092 11.4259C11.9048 12.1168 11.7178 12.8342 11.5481 13.5781L11.5446 13.5845ZM12.543 10.0864L10.7627 9.57734C11.0792 8.77513 11.4443 7.99297 11.8561 7.23523L13.5127 7.70844C13.15 8.48277 12.8275 9.27531 12.5466 10.0829L12.543 10.0864ZM14.1708 6.43367L12.6197 5.98438C13.9795 3.97766 15.5791 2.75492 17.2793 2.62555C16.005 3.67809 14.9501 4.97078 14.1743 6.43016L14.1708 6.43367ZM13.7602 2.63047C12.7209 3.47388 11.8331 4.48825 11.1347 5.63L8.91914 6.26281C10.3205 4.09016 11.9876 2.76195 13.7637 2.62695L13.7602 2.63047ZM7.94531 8.00234L10.1651 7.36953C9.87211 7.96344 9.59672 8.59227 9.33891 9.25602L7.13109 9.88883C7.38281 9.22227 7.65422 8.59086 7.94531 8.00234ZM6.56578 11.5095L8.76305 10.8823C8.55727 11.5287 8.36836 12.1995 8.19633 12.8947L6.00961 13.5205C6.17789 12.8258 6.36328 12.1555 6.56578 11.5095ZM5.66789 15.0814L7.84336 14.4591C7.71633 15.0934 7.60336 15.743 7.50445 16.4082L5.33883 17.0262C5.43586 16.3639 5.54555 15.7156 5.66789 15.0814ZM5.15461 18.5422L7.31039 17.9263C7.24055 18.5502 7.18359 19.183 7.13953 19.8247L4.99992 20.4364C5.03789 19.7966 5.08945 19.1652 5.15461 18.5422ZM7.3343 28.2664C7.41164 28.9377 7.50398 29.5953 7.61133 30.2394L5.6475 30.8019C5.52516 30.1625 5.41758 29.5088 5.32477 28.8409L7.3343 28.2664ZM7.86516 31.6302C8.02195 32.4036 8.20125 33.1461 8.39742 33.8661L6.50953 34.307C6.29859 33.6256 6.11367 32.9134 5.94211 32.18L7.86516 31.6302ZM8.79609 35.2161C9.04852 35.9994 9.32695 36.7426 9.62508 37.4471L7.89117 37.8809C7.54169 37.1523 7.23026 36.4059 6.95813 35.645L8.79609 35.2161ZM10.222 38.75C11.05 40.5325 12.2589 42.1116 13.7637 43.3759C11.8343 43.2296 10.0371 41.6743 8.56687 39.1641L10.222 38.75ZM11.9531 23C11.9531 12.875 15.4687 4.19211 19.8668 2.80695C16.0137 6.02234 13.3594 13.7511 13.3594 23C13.3594 32.2489 16.0137 39.9777 19.8668 43.193C15.4687 41.8079 11.9531 33.125 11.9531 23ZM2.10938 23C2.10938 12.875 5.625 4.19211 10.023 2.80695C6.16992 6.02234 3.51562 13.7511 3.51562 23C3.51562 32.2489 6.16992 39.9777 10.023 43.193C5.625 41.8079 2.10938 33.125 2.10938 23ZM23.9062 43.3906C18.9513 43.3906 14.7656 34.0531 14.7656 23C14.7656 11.9469 18.9513 2.60938 23.9062 2.60938C26.7673 2.60938 29.546 5.81844 31.2757 11.0469H27.0703L25.9102 9.5C26.2342 9.17096 26.4722 8.7672 26.6032 8.32436C26.7342 7.88152 26.7542 7.41324 26.6613 6.96087C26.5684 6.5085 26.3655 6.08597 26.0706 5.73058C25.7758 5.37519 25.3979 5.09788 24.9704 4.92315C24.5429 4.74841 24.079 4.68163 23.6196 4.7287C23.1602 4.77576 22.7195 4.93522 22.3363 5.193C21.9531 5.45078 21.6394 5.79895 21.4226 6.20675C21.2059 6.61455 21.093 7.06944 21.0938 7.53125C21.0973 7.78295 21.1351 8.03299 21.2062 8.27445C18.9942 10.8219 17.5781 16.5144 17.5781 23C17.5781 33.504 20.8385 39.1719 23.9062 39.1719C26.7251 39.1719 29.7 34.3737 30.1641 25.4462L32.3824 30.5487C30.9804 38.2367 27.5885 43.3906 23.9062 43.3906ZM42.7395 28.2868L34.7927 32.5625L30.6253 22.9789L36.7685 29.1221C36.9004 29.2539 37.0792 29.328 37.2656 29.328C37.4521 29.328 37.6309 29.2539 37.7627 29.1221L41.7045 25.1797L42.7395 28.2868Z" fill="#248FEC"/>
<path d="M30.2344 13.1562C29.8172 13.1562 29.4094 13.28 29.0625 13.5117C28.7156 13.7435 28.4452 14.073 28.2856 14.4584C28.1259 14.8438 28.0841 15.268 28.1655 15.6771C28.2469 16.0863 28.4478 16.4622 28.7428 16.7572C29.0378 17.0522 29.4137 17.2531 29.8229 17.3345C30.232 17.4159 30.6562 17.3741 31.0416 17.2144C31.427 17.0548 31.7565 16.7844 31.9883 16.4375C32.22 16.0906 32.3438 15.6828 32.3438 15.2656C32.3438 14.7062 32.1215 14.1697 31.7259 13.7741C31.3303 13.3785 30.7938 13.1563 30.2344 13.1562ZM30.2344 15.9688C30.0953 15.9688 29.9594 15.9275 29.8437 15.8503C29.7281 15.773 29.638 15.6632 29.5848 15.5347C29.5316 15.4062 29.5176 15.2648 29.5448 15.1285C29.5719 14.9921 29.6389 14.8668 29.7372 14.7684C29.8355 14.6701 29.9608 14.6031 30.0972 14.576C30.2336 14.5489 30.375 14.5628 30.5034 14.616C30.6319 14.6692 30.7417 14.7594 30.819 14.875C30.8963 14.9906 30.9375 15.1266 30.9375 15.2656C30.9375 15.4521 30.8634 15.6309 30.7316 15.7628C30.5997 15.8947 30.4209 15.9688 30.2344 15.9688Z" fill="#248FEC"/>
</svg>
