<svg width="34" height="34" viewBox="0 0 34 34" fill="none" xmlns="http://www.w3.org/2000/svg">
<path d="M4.77275 2.12499C4.70298 2.1261 4.63412 2.14094 4.57009 2.16867C4.50605 2.19639 4.44811 2.23646 4.39957 2.28658C4.35103 2.3367 4.31283 2.3959 4.28717 2.46078C4.2615 2.52567 4.24887 2.59497 4.25 2.66474V6.91474C4.25 7.05564 4.30597 7.19076 4.4056 7.29039C4.50523 7.39002 4.64035 7.44599 4.78125 7.44599C4.92215 7.44599 5.05727 7.39002 5.1569 7.29039C5.25653 7.19076 5.3125 7.05564 5.3125 6.91474V6.07218L6.53012 7.28874C6.62974 7.3885 6.7649 7.44459 6.90587 7.44469C7.04685 7.44479 7.18209 7.38889 7.28184 7.28927C7.3816 7.18966 7.4377 7.0545 7.4378 6.91352C7.43789 6.77255 7.38199 6.63731 7.28238 6.53755L6.04244 5.29974C6.42582 5.25067 6.77843 5.0643 7.03493 4.77517C7.29144 4.48604 7.43446 4.11374 7.4375 3.72724C7.4375 2.85387 6.71712 2.13349 5.84375 2.13349H4.879C4.84396 2.1271 4.80836 2.12426 4.77275 2.12499ZM13.2685 2.14199C13.245 2.14221 13.2216 2.14399 13.1984 2.1473C13.1877 2.1484 13.1771 2.14982 13.1665 2.15155C13.1654 2.15226 13.1644 2.15297 13.1633 2.15368C13.1479 2.15725 13.1327 2.1615 13.1176 2.16643C13.1162 2.16713 13.1148 2.16784 13.1134 2.16855C13.0809 2.17967 13.0496 2.1939 13.0199 2.21105C13.012 2.21546 13.0042 2.22006 12.9965 2.22487C12.989 2.22929 12.9815 2.23389 12.9742 2.23868C12.9735 2.23939 12.9728 2.24009 12.9721 2.2408C12.9573 2.2514 12.9431 2.26275 12.9296 2.2748C12.92 2.28332 12.9108 2.29218 12.9019 2.30137C12.8998 2.30347 12.8977 2.3056 12.8956 2.30774L11.8394 3.35112C11.7885 3.39985 11.7478 3.45824 11.7196 3.52288C11.6915 3.58752 11.6765 3.65711 11.6755 3.7276C11.6745 3.79809 11.6876 3.86808 11.7139 3.93347C11.7403 3.99886 11.7794 4.05836 11.8289 4.10849C11.8785 4.15862 11.9375 4.19839 12.0026 4.22547C12.0677 4.25255 12.1376 4.2664 12.2081 4.26622C12.2786 4.26604 12.3483 4.25183 12.4133 4.22442C12.4782 4.197 12.5371 4.15694 12.5864 4.10655L12.75 3.94505V6.91474C12.75 7.05564 12.806 7.19076 12.9056 7.29039C13.0052 7.39002 13.1404 7.44599 13.2812 7.44599C13.4221 7.44599 13.5573 7.39002 13.6569 7.29039C13.7565 7.19076 13.8125 7.05564 13.8125 6.91474V2.67749C13.8125 2.67714 13.8125 2.67785 13.8125 2.67749C13.8127 2.65976 13.812 2.64097 13.8104 2.6233C13.8104 2.62295 13.8104 2.6226 13.8104 2.62224C13.8083 2.60547 13.8055 2.5888 13.8019 2.5723C13.8019 2.5716 13.8019 2.57089 13.8019 2.57018C13.7988 2.55335 13.7949 2.53669 13.7902 2.52024C13.7902 2.51953 13.7902 2.51882 13.7902 2.51812C13.7853 2.50192 13.7796 2.48596 13.7732 2.4703C13.7732 2.4696 13.7732 2.46889 13.7732 2.46818C13.7662 2.45186 13.7584 2.4359 13.7498 2.42037C13.733 2.38869 13.7131 2.35878 13.6903 2.33112C13.6896 2.33041 13.6889 2.3297 13.6882 2.32899C13.6777 2.31681 13.6668 2.30511 13.6553 2.29393C13.6553 2.29322 13.6553 2.29251 13.6553 2.2918C13.6301 2.26794 13.6027 2.24658 13.5734 2.22805C13.5727 2.22734 13.572 2.22664 13.5713 2.22593C13.5576 2.21677 13.5434 2.20826 13.5288 2.20043C13.5278 2.19972 13.5267 2.19901 13.5256 2.1983C13.5107 2.1905 13.4955 2.18341 13.4799 2.17705C13.4796 2.17705 13.4792 2.17705 13.4789 2.17705C13.4732 2.17519 13.4676 2.17342 13.4619 2.17174C13.451 2.16784 13.44 2.1643 13.4289 2.16112C13.4282 2.16041 13.4275 2.1597 13.4268 2.15899C13.3935 2.14966 13.3593 2.14361 13.3248 2.14093C13.3241 2.14093 13.3234 2.14093 13.3227 2.14093C13.3053 2.14008 13.288 2.14008 13.2706 2.14093C13.2699 2.14093 13.2692 2.14199 13.2685 2.14199ZM27.4359 2.14199C27.31 2.14238 27.1883 2.18746 27.0926 2.26919C26.9969 2.35092 26.9333 2.46398 26.9131 2.58824L26.5667 4.71537C26.5473 4.83459 26.5691 4.95688 26.6285 5.06207C26.6879 5.16726 26.7814 5.24906 26.8935 5.29399C27.0056 5.33892 27.1297 5.34429 27.2453 5.30922C27.3609 5.27414 27.4611 5.20072 27.5294 5.10105C27.6745 4.98683 27.8585 4.93369 28.0422 4.95293C28.2259 4.97218 28.3949 5.06229 28.5133 5.20412C28.6345 5.34426 28.6968 5.52595 28.6868 5.71102C28.6769 5.89608 28.5957 6.0701 28.4601 6.19649C28.3264 6.32525 28.1474 6.3963 27.9618 6.39431C27.7761 6.39232 27.5987 6.31746 27.4677 6.18587C27.4174 6.13745 27.3581 6.09941 27.2931 6.07393C27.2281 6.04845 27.1587 6.03602 27.0889 6.03735C27.0191 6.03868 26.9503 6.05375 26.8863 6.0817C26.8223 6.10964 26.7644 6.14991 26.716 6.20021C26.6676 6.25051 26.6296 6.30985 26.6041 6.37485C26.5786 6.43985 26.5662 6.50924 26.5675 6.57904C26.5688 6.64884 26.5839 6.7177 26.6119 6.78168C26.6398 6.84566 26.6801 6.90351 26.7304 6.95193C27.4104 7.60855 28.4994 7.61387 29.1879 6.9668C29.8754 6.31868 29.9338 5.23068 29.3208 4.51243C29.0241 4.16474 28.6046 3.9451 28.1499 3.89937V3.90362C28.025 3.892 27.8993 3.89342 27.7748 3.90787L27.8885 3.20449H29.2166C29.3575 3.20449 29.4926 3.14852 29.5923 3.04889C29.6919 2.94926 29.7479 2.81414 29.7479 2.67324C29.7479 2.53235 29.6919 2.39722 29.5923 2.29759C29.4926 2.19796 29.3575 2.14199 29.2166 2.14199H27.4359ZM20.5689 2.1473C20.1746 2.18603 19.8087 2.36991 19.5422 2.66323C19.2758 2.95656 19.1279 3.33842 19.1271 3.73468C19.1271 3.87558 19.1831 4.0107 19.2827 4.11033C19.3824 4.20996 19.5175 4.26593 19.6584 4.26593C19.7993 4.26593 19.9344 4.20996 20.034 4.11033C20.1337 4.0107 20.1896 3.87558 20.1896 3.73468C20.1888 3.62932 20.2195 3.52612 20.2777 3.43831C20.3359 3.35049 20.4191 3.28206 20.5164 3.24177C20.6138 3.20148 20.7209 3.19118 20.8242 3.21217C20.9274 3.23317 21.022 3.28451 21.0959 3.35962C21.1706 3.43374 21.2213 3.52845 21.2418 3.63162C21.2622 3.73478 21.2514 3.84171 21.2107 3.93868C21.1711 4.036 21.1033 4.11925 21.016 4.17775C20.9287 4.23625 20.8259 4.26733 20.7209 4.26699C20.6726 4.26575 20.6243 4.27112 20.5774 4.28293C20.5728 4.28428 20.5682 4.2857 20.5636 4.28718C20.5514 4.29099 20.5394 4.29525 20.5275 4.29993C20.4995 4.31073 20.4725 4.32388 20.4467 4.33924C20.4392 4.34331 20.4318 4.34756 20.4244 4.35199C20.423 4.35269 20.4216 4.3534 20.4202 4.35412C20.4093 4.36116 20.3987 4.3686 20.3883 4.37643C20.3773 4.38521 20.3667 4.39443 20.3564 4.40405C20.3518 4.40787 20.3472 4.41177 20.3426 4.41574C20.3372 4.42199 20.3319 4.42837 20.3267 4.43487C20.3194 4.4421 20.3123 4.44954 20.3054 4.45718C20.3018 4.46137 20.2983 4.46562 20.2948 4.46993C20.2878 4.47927 20.281 4.48883 20.2746 4.49862C20.2687 4.50695 20.263 4.51545 20.2576 4.52412C20.2551 4.52868 20.2526 4.53329 20.2502 4.53793C20.245 4.54699 20.24 4.5562 20.2353 4.56555C20.2316 4.57291 20.2281 4.58035 20.2247 4.58787C20.2217 4.59559 20.2188 4.60338 20.2162 4.61124C20.2136 4.61827 20.2111 4.62536 20.2087 4.63249C20.2073 4.63778 20.2058 4.64309 20.2045 4.64843C20.1953 4.67896 20.1889 4.71025 20.1854 4.74193C20.1843 4.75253 20.1836 4.76316 20.1833 4.7738C20.1824 4.78193 20.1816 4.79008 20.1811 4.79824C20.1817 4.80569 20.1824 4.81313 20.1833 4.82055C20.1836 4.8312 20.1843 4.84183 20.1854 4.85243C20.1854 4.8542 20.1854 4.85597 20.1854 4.85774C20.1871 4.87021 20.1892 4.88261 20.1917 4.89493C20.1952 4.91177 20.1994 4.92844 20.2045 4.94487C20.2045 4.94557 20.2045 4.94628 20.2045 4.94699C20.2045 4.9477 20.2045 4.94841 20.2045 4.94912C20.2077 4.95914 20.2113 4.96906 20.2151 4.97887C20.2184 4.98781 20.222 4.99667 20.2257 5.00543C20.2288 5.01294 20.232 5.02038 20.2353 5.02774C20.24 5.03709 20.245 5.04631 20.2502 5.05537C20.2526 5.06001 20.2551 5.06461 20.2576 5.06918C20.263 5.07856 20.2687 5.08777 20.2746 5.0968C20.2781 5.10111 20.2816 5.10536 20.2852 5.10955C20.3126 5.14724 20.3447 5.18118 20.3809 5.21049C20.3833 5.21335 20.3858 5.21618 20.3883 5.21899C20.3987 5.22646 20.4093 5.23354 20.4202 5.24024C20.4289 5.24509 20.4378 5.2497 20.4467 5.25405C20.453 5.25844 20.4594 5.26269 20.4659 5.2668C20.4704 5.26899 20.4751 5.27112 20.4797 5.27318C20.4922 5.27971 20.505 5.28573 20.5179 5.29124C20.5295 5.2959 20.5412 5.30015 20.553 5.30399C20.5604 5.30557 20.5678 5.30698 20.5753 5.30824C20.5767 5.30896 20.5781 5.30966 20.5796 5.31037C20.5912 5.3136 20.6028 5.31643 20.6146 5.31887C20.6266 5.32141 20.6386 5.32353 20.6508 5.32524C20.6614 5.32627 20.672 5.32698 20.6826 5.32737C20.6953 5.32853 20.7081 5.32924 20.7209 5.32949C20.9376 5.32949 21.1278 5.45699 21.2096 5.65674C21.2936 5.85649 21.2489 6.0828 21.0959 6.2358C21.0221 6.31056 20.9277 6.36162 20.8248 6.38244C20.7218 6.40326 20.615 6.3929 20.5179 6.35268C20.4206 6.31307 20.3374 6.24527 20.2789 6.15799C20.2204 6.07071 20.1893 5.96794 20.1896 5.86287C20.1896 5.72197 20.1337 5.58684 20.034 5.48722C19.9344 5.38759 19.7993 5.33162 19.6584 5.33162C19.5175 5.33162 19.3824 5.38759 19.2827 5.48722C19.1831 5.58684 19.1271 5.72197 19.1271 5.86287C19.1271 6.50568 19.5171 7.09005 20.111 7.33549C20.7049 7.58199 21.3924 7.44387 21.8471 6.98912C22.0697 6.76595 22.2212 6.48191 22.2827 6.17278C22.3441 5.86365 22.3127 5.54325 22.1924 5.25193C22.1197 5.08445 22.0183 4.93093 21.8928 4.79824C22.015 4.66437 22.1202 4.51774 22.1924 4.34562C22.2971 4.09152 22.3344 3.81473 22.3008 3.54199C22.2671 3.26926 22.1637 3.00982 22.0004 2.78877C21.8372 2.56772 21.6196 2.39254 21.3689 2.28016C21.1181 2.16779 20.8426 2.12203 20.5689 2.1473ZM5.3125 3.19599H5.84375C6.14762 3.19599 6.375 3.42337 6.375 3.72724C6.375 4.03112 6.14762 4.25849 5.84375 4.25849H5.3125V3.19599ZM5.84375 8.51062V8.51699C5.13996 8.51923 4.46563 8.79981 3.96797 9.29747C3.47032 9.79512 3.18974 10.4694 3.1875 11.1732C3.18856 11.9892 3.61994 12.7032 4.25 13.2026V17.5482C4.25 17.6891 4.30597 17.8243 4.4056 17.9239C4.50523 18.0235 4.64035 18.0795 4.78125 18.0795H11.6875V19.7667C11.0564 20.2651 10.6261 20.978 10.625 21.7961C10.625 23.256 11.8203 24.4524 13.2812 24.4524C14.7422 24.4524 15.9375 23.256 15.9375 21.7961C15.9375 20.978 15.5061 20.2608 14.875 19.7625V18.0774H19.125V19.7646C18.4939 20.2629 18.0636 20.9759 18.0625 21.794C18.0625 23.2549 19.2578 24.4502 20.7188 24.4502C22.1797 24.4502 23.375 23.2549 23.375 21.794C23.375 20.9759 22.9436 20.2587 22.3125 19.7604V18.0752H26.5625V19.7604C25.9314 20.2587 25.5011 20.9748 25.5 21.7919C25.5 23.2528 26.6953 24.4481 28.1562 24.4481C29.6172 24.4481 30.8125 23.2528 30.8125 21.7919C30.8125 20.9737 30.3811 20.2544 29.75 19.7561V13.1984C30.3811 12.699 30.8125 11.9839 30.8125 11.1669C30.8125 9.70593 29.6172 8.51062 28.1562 8.51062C27.4525 8.51286 26.7781 8.79343 26.2805 9.29109C25.7828 9.78875 25.5022 10.4631 25.5 11.1669C25.5011 11.9839 25.9324 12.6969 26.5625 13.1941V14.8856H22.3125V13.1984C22.9436 12.699 23.375 11.9839 23.375 11.1669C23.375 9.70593 22.1797 8.51062 20.7188 8.51062C20.015 8.51286 19.3406 8.79343 18.843 9.29109C18.3453 9.78875 18.0647 10.4631 18.0625 11.1669C18.0636 11.9839 18.4949 12.6969 19.125 13.1941V14.8856H14.875V13.1984C15.5061 12.699 15.9375 11.9839 15.9375 11.1669C15.9375 9.70593 14.7422 8.51062 13.2812 8.51062C12.5775 8.51286 11.9031 8.79343 11.4055 9.29109C10.9078 9.78875 10.6272 10.4631 10.625 11.1669C10.6261 11.9839 11.0574 12.6969 11.6875 13.1941V14.8856H7.4375V13.1984C8.06862 12.699 8.5 11.9839 8.5 11.1669C8.5 9.70593 7.30469 8.51062 5.84375 8.51062ZM5.84375 9.57949C6.72988 9.57949 7.4375 10.2861 7.4375 11.1732C7.4375 11.7427 7.13363 12.2655 6.64062 12.5502C6.55971 12.597 6.49255 12.6642 6.44591 12.7451C6.39928 12.8261 6.37482 12.9179 6.375 13.0114V15.4232C6.375 15.5641 6.43097 15.6993 6.5306 15.7989C6.63023 15.8985 6.76535 15.9545 6.90625 15.9545H12.2188C12.3596 15.9545 12.4948 15.8985 12.5944 15.7989C12.694 15.6993 12.75 15.5641 12.75 15.4232V13.0092C12.75 12.916 12.7254 12.8244 12.6788 12.7436C12.6322 12.6629 12.5651 12.5958 12.4844 12.5492C12.1818 12.3733 11.9456 12.1028 11.8123 11.7793C11.6789 11.4558 11.6557 11.0974 11.7464 10.7594C11.8371 10.4214 12.0366 10.1228 12.314 9.90949C12.5914 9.69622 12.9313 9.58025 13.2812 9.57949C14.1674 9.57949 14.875 10.2861 14.875 11.1732C14.875 11.7427 14.5711 12.2655 14.0781 12.5502C13.9972 12.597 13.93 12.6642 13.8834 12.7451C13.8368 12.8261 13.8123 12.9179 13.8125 13.0114V15.4232C13.8125 15.5641 13.8685 15.6993 13.9681 15.7989C14.0677 15.8985 14.2029 15.9545 14.3438 15.9545H19.6562C19.7971 15.9545 19.9323 15.8985 20.0319 15.7989C20.1315 15.6993 20.1875 15.5641 20.1875 15.4232V13.0092C20.1875 12.916 20.163 12.8244 20.1163 12.7436C20.0697 12.6629 20.0026 12.5958 19.9219 12.5492C19.6193 12.3733 19.3831 12.1028 19.2498 11.7793C19.1164 11.4558 19.0932 11.0974 19.1839 10.7594C19.2746 10.4214 19.4741 10.1228 19.7515 9.90949C20.0289 9.69622 20.3688 9.58025 20.7188 9.57949C21.6049 9.57949 22.3125 10.2861 22.3125 11.1732C22.3125 11.7427 22.0086 12.2655 21.5156 12.5502C21.4347 12.597 21.3675 12.6642 21.3209 12.7451C21.2743 12.8261 21.2498 12.9179 21.25 13.0114V15.4232C21.25 15.5641 21.306 15.6993 21.4056 15.7989C21.5052 15.8985 21.6404 15.9545 21.7812 15.9545H27.0938C27.2346 15.9545 27.3698 15.8985 27.4694 15.7989C27.569 15.6993 27.625 15.5641 27.625 15.4232V13.0092C27.625 12.916 27.6005 12.8244 27.5538 12.7436C27.5072 12.6629 27.4401 12.5958 27.3594 12.5492C27.0568 12.3733 26.8206 12.1028 26.6873 11.7793C26.5539 11.4558 26.5307 11.0974 26.6214 10.7594C26.7121 10.4214 26.9116 10.1228 27.189 9.90949C27.4664 9.69622 27.8063 9.58025 28.1562 9.57949C29.0424 9.57949 29.75 10.2861 29.75 11.1732C29.75 11.7427 29.4461 12.2655 28.9531 12.5502C28.8722 12.597 28.805 12.6642 28.7584 12.7451C28.7118 12.8261 28.6873 12.9179 28.6875 13.0114V19.9601C28.6881 20.0528 28.7129 20.1438 28.7595 20.2239C28.8061 20.3041 28.8728 20.3706 28.9531 20.417C29.1956 20.557 29.3968 20.7583 29.5367 21.0008C29.6766 21.2433 29.7502 21.5183 29.75 21.7982C29.75 22.6844 29.0424 23.392 28.1562 23.392C27.2701 23.392 26.5625 22.6844 26.5625 21.7982C26.5625 21.2287 26.8664 20.7039 27.3594 20.4202C27.44 20.3736 27.5069 20.3067 27.5536 20.2262C27.6002 20.1456 27.6248 20.0543 27.625 19.9612V17.5482C27.625 17.4073 27.569 17.2722 27.4694 17.1726C27.3698 17.073 27.2346 17.017 27.0938 17.017H21.7812C21.6404 17.017 21.5052 17.073 21.4056 17.1726C21.306 17.2722 21.25 17.4073 21.25 17.5482V19.9601C21.2506 20.0528 21.2754 20.1438 21.322 20.2239C21.3686 20.3041 21.4353 20.3706 21.5156 20.417C21.7581 20.557 21.9593 20.7583 22.0992 21.0008C22.2391 21.2433 22.3127 21.5183 22.3125 21.7982C22.3125 22.6844 21.6049 23.392 20.7188 23.392C19.8326 23.392 19.125 22.6844 19.125 21.7982C19.125 21.2287 19.4289 20.7039 19.9219 20.4202C20.0025 20.3736 20.0694 20.3067 20.1161 20.2262C20.1627 20.1456 20.1873 20.0543 20.1875 19.9612V17.5482C20.1875 17.4073 20.1315 17.2722 20.0319 17.1726C19.9323 17.073 19.7971 17.017 19.6562 17.017H14.3438C14.2029 17.017 14.0677 17.073 13.9681 17.1726C13.8685 17.2722 13.8125 17.4073 13.8125 17.5482V19.9601C13.8131 20.0528 13.8379 20.1438 13.8845 20.2239C13.9311 20.3041 13.9978 20.3706 14.0781 20.417C14.3206 20.557 14.5218 20.7583 14.6617 21.0008C14.8016 21.2433 14.8752 21.5183 14.875 21.7982C14.875 22.6844 14.1674 23.392 13.2812 23.392C12.3951 23.392 11.6875 22.6844 11.6875 21.7982C11.6875 21.2287 11.9914 20.7039 12.4844 20.4202C12.565 20.3736 12.6319 20.3067 12.6786 20.2262C12.7252 20.1456 12.7498 20.0543 12.75 19.9612V17.5482C12.75 17.4073 12.694 17.2722 12.5944 17.1726C12.4948 17.073 12.3596 17.017 12.2188 17.017H5.3125V13.0092C5.3125 12.916 5.28795 12.8244 5.24132 12.7436C5.1947 12.6629 5.12763 12.5958 5.04688 12.5492C4.80515 12.4097 4.6043 12.2092 4.46445 11.9678C4.3246 11.7263 4.25064 11.4523 4.25 11.1732C4.24915 10.9638 4.28982 10.7563 4.36964 10.5627C4.44946 10.369 4.56685 10.1931 4.71504 10.0452C4.86323 9.89716 5.03928 9.78 5.23301 9.70044C5.42674 9.62088 5.63432 9.58049 5.84375 9.58162V9.57949ZM20.5647 25.5021C20.4516 25.5056 20.3426 25.5451 20.2536 25.6149C20.1645 25.6846 20.1 25.781 20.0696 25.8899L19.1399 29.0774C19.1168 29.1566 19.1124 29.2401 19.1272 29.3212C19.1419 29.4024 19.1754 29.4789 19.2249 29.5449C19.2744 29.6109 19.3385 29.6645 19.4123 29.7013C19.4861 29.7382 19.5674 29.7574 19.6499 29.7574H21.2436V30.2887C21.2436 30.4296 21.2996 30.5647 21.3992 30.6643C21.4989 30.764 21.634 30.8199 21.7749 30.8199C21.9158 30.8199 22.0509 30.764 22.1505 30.6643C22.2502 30.5647 22.3061 30.4296 22.3061 30.2887V29.3409C22.3235 29.264 22.3235 29.1841 22.3061 29.1072V27.1894C22.3061 27.0485 22.2502 26.9133 22.1505 26.8137C22.0509 26.7141 21.9158 26.6581 21.7749 26.6581C21.634 26.6581 21.4989 26.7141 21.3992 26.8137C21.2996 26.9133 21.2436 27.0485 21.2436 27.1894V28.696H20.3596L21.0906 26.1885C21.1154 26.1076 21.1204 26.022 21.1054 25.9388C21.0904 25.8555 21.0558 25.7771 21.0043 25.7099C20.9529 25.6428 20.8861 25.5889 20.8097 25.5528C20.7332 25.5166 20.6492 25.4993 20.5647 25.5021ZM28.1562 25.5085C27.2829 25.5085 26.5625 26.2289 26.5625 27.1022V29.2272C26.562 29.2683 26.5663 29.3093 26.5752 29.3494C26.6069 29.748 26.7868 30.1203 27.0795 30.3927C27.3722 30.6652 27.7564 30.818 28.1562 30.821C29.0307 30.821 29.75 30.1006 29.75 29.2272C29.75 28.3528 29.0307 27.6335 28.1562 27.6335C27.9748 27.635 27.7951 27.6681 27.625 27.7312V27.1022C27.625 26.7984 27.8524 26.571 28.1562 26.571C28.4601 26.571 28.6875 26.7984 28.6875 27.1022C28.6875 27.2431 28.7435 27.3783 28.8431 27.4779C28.9427 27.5775 29.0779 27.6335 29.2188 27.6335C29.3596 27.6335 29.4948 27.5775 29.5944 27.4779C29.694 27.3783 29.75 27.2431 29.75 27.1022C29.75 26.2289 29.0296 25.5085 28.1562 25.5085ZM13.26 25.517C12.3866 25.517 11.6662 26.2363 11.6662 27.1107C11.6662 27.2516 11.7222 27.3868 11.8218 27.4864C11.9215 27.586 12.0566 27.642 12.1975 27.642C12.3384 27.642 12.4735 27.586 12.5732 27.4864C12.6728 27.3868 12.7287 27.2516 12.7287 27.1107C12.7287 26.8069 12.9572 26.5795 13.26 26.5795C13.5639 26.5795 13.7912 26.8069 13.7912 27.1107C13.8014 27.3356 13.7241 27.5557 13.5756 27.7249C13.4353 27.9012 13.2101 28.0797 12.9455 28.2784C12.6799 28.4782 12.3771 28.6981 12.121 29.0201C11.866 29.3409 11.6748 29.7819 11.6748 30.2982C11.6748 30.4391 11.7307 30.5743 11.8303 30.6739C11.93 30.7735 12.0651 30.8295 12.206 30.8295H14.331C14.4719 30.8295 14.607 30.7735 14.7067 30.6739C14.8063 30.5743 14.8623 30.4391 14.8623 30.2982C14.8623 30.1573 14.8063 30.0222 14.7067 29.9226C14.607 29.823 14.4719 29.767 14.331 29.767H12.9221C12.9391 29.7426 12.9327 29.7064 12.9508 29.682C13.0921 29.5046 13.3195 29.3271 13.5841 29.1274C13.8497 28.9287 14.1525 28.7077 14.4086 28.3868C14.6636 28.0659 14.8548 27.6261 14.8548 27.1107C14.8548 26.2363 14.1344 25.517 13.2611 25.517H13.26ZM28.1562 28.696C28.4559 28.696 28.6875 28.9276 28.6875 29.2272C28.6875 29.5269 28.4559 29.7585 28.1562 29.7585C28.0862 29.7595 28.0167 29.7464 27.9518 29.7201C27.8869 29.6938 27.8279 29.6547 27.7784 29.6051C27.7288 29.5556 27.6897 29.4966 27.6634 29.4317C27.6371 29.3668 27.624 29.2973 27.625 29.2272C27.625 28.9276 27.8566 28.696 28.1562 28.696Z" fill="#248FEC"/>
</svg>
