<svg width="30" height="30" viewBox="0 0 30 30" fill="none" xmlns="http://www.w3.org/2000/svg">
<path d="M29.0625 5.62521C29.0636 4.64973 28.76 3.69825 28.1942 2.90367C27.6283 2.10909 26.8284 1.51108 25.9062 1.19316C24.984 0.875235 23.9855 0.853279 23.0502 1.13036C22.1149 1.40743 21.2894 1.96971 20.6892 2.73865L10.68 8.51411C9.61563 8.06653 8.45746 7.88786 7.30771 7.99386C6.15796 8.09986 5.05198 8.48729 4.08741 9.12194C3.12285 9.75658 2.32935 10.6189 1.77697 11.6329C1.22459 12.6468 0.930323 13.7811 0.920135 14.9357C0.909946 16.0903 1.18415 17.2296 1.71855 18.2531C2.25295 19.2766 3.03111 20.1529 3.98432 20.8044C4.93754 21.456 6.03651 21.8629 7.18421 21.9892C8.33191 22.1154 9.49305 21.9572 10.5651 21.5285L18.4687 26.0885C18.6525 26.6917 18.9691 27.246 19.3953 27.7106C19.8216 28.1753 20.3465 28.5385 20.9316 28.7736C21.5167 29.0086 22.147 29.1096 22.7763 29.0689C23.4055 29.0283 24.0176 28.8471 24.5676 28.5387C25.1176 28.2304 25.5914 27.8026 25.9543 27.287C26.3172 26.7713 26.5599 26.1809 26.6646 25.5591C26.7692 24.9373 26.7332 24.3 26.559 23.694C26.3849 23.0879 26.0772 22.5287 25.6584 22.0572L28.0959 8.46677C28.7229 7.65223 29.0628 6.65312 29.0625 5.62521ZM19.8853 4.28505C19.7702 4.6732 19.7062 5.07472 19.695 5.47943L12.4997 9.63208C12.236 9.41097 11.9565 9.20949 11.6634 9.02927L19.8853 4.28505ZM7.96873 21.094C6.7635 21.094 5.58533 20.7366 4.58322 20.067C3.58111 19.3974 2.80006 18.4457 2.33884 17.3322C1.87762 16.2187 1.75694 14.9934 1.99207 13.8114C2.2272 12.6293 2.80757 11.5435 3.6598 10.6913C4.51202 9.83905 5.59782 9.25868 6.7799 9.02355C7.96197 8.78842 9.18722 8.9091 10.3007 9.37032C11.4142 9.83154 12.3659 10.6126 13.0355 11.6147C13.7051 12.6168 14.0625 13.795 14.0625 15.0002C14.0606 16.6158 13.418 18.1647 12.2756 19.3071C11.1332 20.4495 9.58432 21.0921 7.96873 21.094ZM18.284 24.8993L11.5715 21.0269C11.869 20.8516 12.1533 20.6547 12.4219 20.4377L18.3961 23.8849C18.3211 24.1991 18.2826 24.5209 18.2812 24.844C18.2812 24.8627 18.2836 24.8805 18.284 24.8993ZM13.1278 19.7618C14.3196 18.481 14.9877 16.7998 15.0002 15.0504C15.0127 13.3009 14.3686 11.6104 13.1953 10.3127L19.7747 6.51583C19.9825 7.58383 20.555 8.54643 21.3941 9.23901C22.2333 9.93159 23.2869 10.3111 24.375 10.3127C24.555 10.3118 24.7348 10.3007 24.9136 10.2794L23.0494 20.6651C22.1744 20.5431 21.2833 20.7023 20.5048 21.1197C19.7262 21.537 19.1004 22.191 18.7176 22.9872L13.1278 19.7618ZM25.7812 24.844C25.7812 25.4929 25.5888 26.1273 25.2282 26.6669C24.8677 27.2065 24.3552 27.6271 23.7557 27.8754C23.1561 28.1238 22.4963 28.1888 21.8598 28.0622C21.2233 27.9356 20.6387 27.623 20.1798 27.1642C19.7209 26.7053 19.4084 26.1206 19.2818 25.4841C19.1552 24.8476 19.2201 24.1878 19.4685 23.5883C19.7169 22.9887 20.1374 22.4762 20.677 22.1157C21.2166 21.7551 21.851 21.5627 22.5 21.5627C23.3699 21.5637 24.2039 21.9097 24.8191 22.5249C25.4342 23.14 25.7802 23.974 25.7812 24.844ZM24.8358 21.334C24.5625 21.1527 24.269 21.0042 23.9611 20.8915L25.9073 10.0502C26.2748 9.92344 26.625 9.75133 26.9498 9.53786L24.8358 21.334ZM24.375 9.37521C23.6333 9.37521 22.9083 9.15527 22.2916 8.74322C21.6749 8.33116 21.1943 7.74549 20.9104 7.06027C20.6266 6.37505 20.5523 5.62105 20.697 4.89362C20.8417 4.16619 21.1989 3.498 21.7233 2.97356C22.2478 2.44911 22.916 2.09196 23.6434 1.94726C24.3708 1.80257 25.1248 1.87683 25.81 2.16066C26.4953 2.44449 27.0809 2.92514 27.493 3.54182C27.905 4.1585 28.125 4.88353 28.125 5.62521C28.1239 6.61943 27.7284 7.57261 27.0254 8.27563C26.3224 8.97864 25.3692 9.37409 24.375 9.37521Z" fill="#248FEC"/>
</svg>
