<svg width="28" height="28" viewBox="0 0 28 28" fill="none" xmlns="http://www.w3.org/2000/svg">
<path d="M14 16.7095C14.4875 16.7095 14.9641 16.565 15.3694 16.2941C15.7748 16.0233 16.0907 15.6383 16.2773 15.1879C16.4638 14.7375 16.5127 14.2419 16.4175 13.7638C16.3224 13.2856 16.0877 12.8465 15.743 12.5017C15.3982 12.157 14.959 11.9223 14.4809 11.8271C14.0028 11.732 13.5072 11.7809 13.0568 11.9674C12.6064 12.154 12.2214 12.4699 11.9506 12.8752C11.6797 13.2806 11.5352 13.7572 11.5352 14.2447C11.536 14.8981 11.7959 15.5246 12.258 15.9867C12.7201 16.4488 13.3466 16.7087 14 16.7095ZM14 12.6552C14.3145 12.6552 14.6219 12.7485 14.8834 12.9232C15.1448 13.0979 15.3486 13.3462 15.4689 13.6368C15.5892 13.9273 15.6207 14.247 15.5593 14.5554C15.4979 14.8638 15.3465 15.1471 15.1241 15.3695C14.9017 15.5918 14.6184 15.7432 14.3099 15.8045C14.0015 15.8658 13.6818 15.8342 13.3913 15.7138C13.1008 15.5934 12.8525 15.3896 12.6779 15.1281C12.5032 14.8666 12.4101 14.5591 12.4102 14.2447C12.4106 13.8232 12.5783 13.4191 12.8764 13.1211C13.1744 12.8231 13.5786 12.6556 14 12.6552Z" fill="#248FEC"/>
<path d="M14.0001 22.417C15.6164 22.4169 17.1965 21.9376 18.5404 21.0395C19.8843 20.1414 20.9317 18.865 21.5502 17.3717C22.1687 15.8784 22.3305 14.2352 22.0151 12.6499C21.6997 11.0646 20.9213 9.60844 19.7783 8.46554C18.6354 7.32264 17.1792 6.54433 15.5939 6.22903C14.0086 5.91372 12.3654 6.07559 10.8721 6.69416C9.37876 7.31273 8.10242 8.36022 7.20443 9.70417C6.30645 11.0481 5.82715 12.6282 5.82715 14.2445C5.82946 16.4114 6.6913 18.4888 8.22353 20.021C9.75576 21.5531 11.8332 22.4148 14.0001 22.417ZM8.7584 19.3108L9.75852 17.7887C10.3431 18.4902 11.0929 19.0355 11.9403 19.3755L10.8028 20.7952C10.0405 20.4223 9.34868 19.9197 8.7584 19.3099V19.3108ZM11.3173 15.1173C11.2969 15.0549 11.2628 14.9979 11.2173 14.9505C11.1719 14.9031 11.1163 14.8665 11.0548 14.8435L9.34465 14.1973C9.3557 13.2475 9.65639 12.3238 10.2065 11.5495L11.9679 12.0308C12.0056 12.0408 12.0444 12.046 12.0834 12.0461C12.196 12.0462 12.3042 12.003 12.3857 11.9253C12.4672 11.8476 12.5156 11.7416 12.5209 11.6291L12.6084 9.80521C13.5152 9.52434 14.4858 9.52434 15.3926 9.80521L15.4801 11.6291C15.4854 11.7416 15.5339 11.8476 15.6153 11.9253C15.6968 12.003 15.8051 12.0462 15.9176 12.0461C15.9566 12.046 15.9955 12.0408 16.0331 12.0308L17.795 11.5495C18.3449 12.324 18.6455 13.2479 18.6564 14.1977L16.9462 14.8439C16.8849 14.8671 16.8296 14.9038 16.7844 14.9512C16.7392 14.9986 16.7052 15.0556 16.685 15.1179C16.6647 15.1802 16.6588 15.2463 16.6675 15.3113C16.6762 15.3762 16.6994 15.4384 16.7353 15.4931L17.7355 17.0187C17.1701 17.7821 16.3841 18.3537 15.4836 18.6563L14.3413 17.2296C14.299 17.1807 14.2465 17.1414 14.1877 17.1145C14.1288 17.0876 14.0648 17.0737 14.0001 17.0737C13.9354 17.0737 13.8714 17.0876 13.8125 17.1145C13.7536 17.1414 13.7012 17.1807 13.6588 17.2296L12.517 18.655C11.6165 18.3527 10.8305 17.7816 10.2647 17.0187L11.267 15.4931C11.3032 15.4382 11.3265 15.3758 11.3352 15.3106C11.3439 15.2453 11.3378 15.179 11.3173 15.1165V15.1173ZM6.78134 13.2273C6.89686 12.3859 7.15973 11.5713 7.5579 10.8211L9.31927 11.3023C8.83418 12.0758 8.54746 12.957 8.48452 13.8678L6.78134 13.2273ZM19.5148 13.8709C19.4525 12.9601 19.1662 12.0789 18.6813 11.3054L20.4431 10.8241C20.8412 11.5744 21.1041 12.3889 21.2197 13.2304L19.5148 13.8709ZM11.6437 21.1443L14.0001 18.2026L16.3565 21.1443C14.8303 21.6746 13.1699 21.6746 11.6437 21.1443ZM17.1969 20.7943L16.0594 19.3747C16.9079 19.0351 17.6586 18.4898 18.2438 17.7878L19.244 19.3099C18.6529 19.9197 17.9602 20.422 17.1969 20.7943ZM19.8315 18.6138L17.7626 15.4678L21.2906 14.1351C21.2906 14.1719 21.2963 14.2078 21.2963 14.2445C21.2961 15.8215 20.7819 17.3554 19.8315 18.6138ZM19.9601 10.0476L16.3289 11.0425L16.1513 7.27077C17.6923 7.75115 19.0314 8.72738 19.9601 10.0476ZM15.2631 7.06384L15.3506 8.88515C14.4649 8.66508 13.5388 8.66508 12.653 8.88515L12.7405 7.06384C13.5754 6.90809 14.4318 6.90809 15.2666 7.06384H15.2631ZM11.8506 7.27077L11.673 11.0425L8.04177 10.0476C8.97065 8.7273 10.3094 7.75106 11.8506 7.27077ZM6.70784 14.1347L10.2376 15.4678L8.1704 18.6138C7.2194 17.3556 6.70455 15.8217 6.7039 14.2445C6.70215 14.2078 6.7074 14.1719 6.70784 14.1347Z" fill="#248FEC"/>
<path d="M13.9999 26.4324C16.4105 26.4325 18.7669 25.7177 20.7713 24.3786C22.7756 23.0394 24.3378 21.136 25.2604 18.9089C26.1829 16.6819 26.4243 14.2313 25.9541 11.8671C25.4839 9.50281 24.3231 7.3311 22.6187 5.62655C20.9142 3.922 18.7425 2.76117 16.3783 2.29086C14.014 1.82056 11.5634 2.06189 9.33638 2.98435C7.10931 3.90681 5.2058 5.46896 3.86656 7.47326C2.52732 9.47755 1.8125 11.834 1.8125 14.2445C1.81609 17.4758 3.10126 20.5737 5.38606 22.8585C7.67085 25.1434 10.7687 26.4287 13.9999 26.4324ZM6.40188 5.8699L7.14563 6.75452L7.81631 6.19233L7.07563 5.30902C7.8852 4.67956 8.77651 4.16296 9.72513 3.7734L10.1189 4.86146L10.9409 4.56221L10.5437 3.47371C11.521 3.15988 12.5367 2.98133 13.5624 2.94302V4.10065H14.4374V2.94302C15.4632 2.98133 16.4789 3.15988 17.4562 3.47371L17.0598 4.56265L17.8819 4.8619L18.2778 3.77383C19.2264 4.1634 20.1177 4.67999 20.9273 5.30946L20.1866 6.19277L20.8573 6.75496L21.6011 5.87033C22.36 6.56022 23.0222 7.34946 23.5698 8.21665L22.5662 8.79371L23.0037 9.5519L24.0051 8.97396C24.4847 9.88072 24.838 10.8488 25.0551 11.8514L23.9132 12.0531L24.0655 12.9141L25.2056 12.7133C25.3473 13.7292 25.3473 14.7599 25.2056 15.7758L24.0659 15.575L23.9137 16.4368L25.0556 16.6381C24.8384 17.6408 24.4851 18.609 24.0056 19.516L23.0037 18.9376L22.5662 19.6953L23.5659 20.2728C23.018 21.1397 22.3558 21.9287 21.5971 22.6187L20.8534 21.7341L20.1836 22.2967L20.9242 23.1791C20.1147 23.809 19.2232 24.3257 18.2743 24.7152L17.8784 23.6276L17.0563 23.9264L17.4527 25.0158C16.4765 25.3291 15.462 25.5075 14.4374 25.546V24.3888H13.5624V25.546C12.5367 25.5079 11.521 25.3294 10.5437 25.0158L10.9401 23.9264L10.118 23.6276L9.72425 24.7152C8.77536 24.3257 7.88388 23.809 7.07431 23.1791L7.815 22.2967L7.14431 21.7341L6.40056 22.6187C5.64193 21.9287 4.97972 21.1397 4.43181 20.2728L5.4315 19.6953L4.994 18.9376L3.99475 19.516C3.51517 18.609 3.1619 17.6408 2.94475 16.6381L4.08662 16.4368L3.93394 15.575L2.79381 15.7758C2.65215 14.7599 2.65215 13.7292 2.79381 12.7133L3.93394 12.9141L4.08619 12.0531L2.94431 11.8514C3.16142 10.8488 3.51469 9.88072 3.99431 8.97396L4.99575 9.5519L5.43325 8.79371L4.434 8.21708C4.98131 7.3498 5.64325 6.56042 6.40188 5.87033V5.8699Z" fill="#248FEC"/>
</svg>
